<svg xmlns="http://www.w3.org/2000/svg" xmlns:xlink="http://www.w3.org/1999/xlink" fill="none" version="1.1" width="272" height="231" viewBox="0 0 272 231"><g><path d="M232.74,72.3373L39.2902,72.3373L0,142.915L0,231L272,231L272,142.915L232.74,72.3373ZM170.561,143.704C170.561,162.789,155.099,178.264,136,178.264C116.901,178.264,101.439,162.789,101.439,143.704L16.2194,143.704L47.6879,83.6249L224.282,83.6249L255.75,143.704L170.561,143.704ZM132.847,0L144.701,0L144.701,42.662L132.847,42.662L132.847,0ZM52.4037,21.1799L60.7853,12.791L90.9257,42.9573L82.5438,51.3465L52.4037,21.1799ZM182.975,42.9767L213.115,12.8101L221.497,21.1993L191.357,51.3656L182.975,42.9767Z" fill="#FFFFFF" fill-opacity="1"/></g></svg>