<svg xmlns="http://www.w3.org/2000/svg" xmlns:xlink="http://www.w3.org/1999/xlink" fill="none" version="1.1" width="529" height="529" viewBox="0 0 529 529"><defs><filter id="master_svg0_231_18645" filterUnits="objectBoundingBox" color-interpolation-filters="sRGB" x="-100" y="-70" width="529" height="529"><feFlood flood-opacity="0" result="BackgroundImageFix"/><feColorMatrix in="SourceAlpha" type="matrix" values="0 0 0 0 0 0 0 0 0 0 0 0 0 0 0 0 0 0 127 0"/><feOffset dy="50" dx="20"/><feGaussianBlur stdDeviation="30"/><feColorMatrix type="matrix" values="0 0 0 0 0.003921568859368563 0 0 0 0 0.11372549086809158 0 0 0 0 0.3529411852359772 0 0 0 0.45098039507865906 0"/><feBlend mode="normal" in2="BackgroundImageFix" result="effect1_dropShadow"/><feBlend mode="normal" in="SourceGraphic" in2="effect1_dropShadow" result="shape"/></filter></defs><g style="mix-blend-mode:passthrough"><g style="mix-blend-mode:passthrough" filter="url(#master_svg0_231_18645)"><g><path d="M244.5,70C164.824,70,100,134.824,100,214.5C100,294.176,164.824,359,244.5,359C324.176,359,389,294.176,389,214.5C389,134.824,324.176,70,244.5,70Z" fill="#D94040" fill-opacity="1"/></g><g style="mix-blend-mode:passthrough" transform="matrix(-0.7071067690849304,0.7071067690849304,-0.7071067690849304,-0.7071067690849304,657.785632765414,52.374968590142544)"><path d="M332.7144085205078,162.41934967041016L481.03960852050784,162.41934967041016C489.1416085205078,162.41934967041016,495.7086085205078,168.98680967041017,495.7086085205078,177.08814967041016C495.7086085205078,185.18954967041014,489.1416085205078,191.75704967041017,481.03960852050784,191.75704967041017L332.7144085205078,191.75704967041017C324.6130685205078,191.75704967041017,318.0456085205078,185.18954967041014,318.0456085205078,177.08814967041016C318.0456085205078,168.98680967041017,324.6130685205078,162.41934967041016,332.7144085205078,162.41934967041016Z" fill-rule="evenodd" fill="#FFFFFF" fill-opacity="1"/></g><g style="mix-blend-mode:passthrough" transform="matrix(0.7071067690849304,0.7071067690849304,0.7071067690849304,-0.7071067690849304,-64.79230316867188,156.42246688805653)"><path d="M185.56902277832032,162.41934967041016L333.89422277832034,162.41934967041016C341.9962227783203,162.41934967041016,348.5632227783203,168.98680967041017,348.5632227783203,177.08814967041016C348.5632227783203,185.18954967041014,341.9962227783203,191.75704967041017,333.89422277832034,191.75704967041017L185.56902277832032,191.75704967041017C177.46768277832032,191.75704967041017,170.9002227783203,185.18954967041014,170.9002227783203,177.08814967041016C170.9002227783203,168.98680967041017,177.46768277832032,162.41934967041016,185.56902277832032,162.41934967041016Z" fill-rule="evenodd" fill="#FFFFFF" fill-opacity="1"/></g></g></g></svg>