<svg xmlns="http://www.w3.org/2000/svg" xmlns:xlink="http://www.w3.org/1999/xlink" fill="none" version="1.1" width="34" height="34" viewBox="0 0 34 34"><g><path d="M17,34C7.6109,34,0,26.3891,0,17C0,7.6109,7.6109,0,17,0C26.3891,0,34,7.6109,34,17C34,26.3891,26.3891,34,17,34ZM17,30.6C24.5111,30.6,30.6,24.5111,30.6,17C30.6,9.48893,24.5111,3.4,17,3.4C9.48893,3.4,3.4,9.48893,3.4,17C3.4,24.5111,9.48893,30.6,17,30.6ZM24.1128,12.291L12.291,24.1128C11.5972,24.8066,10.494,24.9176,9.7991,24.225C9.79105,24.217,9.78301,24.209,9.77498,24.2009C9.08238,23.506,9.19344,22.4028,9.8872,21.709L21.709,9.8872C22.4028,9.19345,23.506,9.08238,24.2009,9.77498C24.209,9.78301,24.217,9.79105,24.225,9.7991C24.9176,10.494,24.8066,11.5972,24.1128,12.291" fill="#D94040" fill-opacity="1"/></g></svg>