<svg xmlns="http://www.w3.org/2000/svg" xmlns:xlink="http://www.w3.org/1999/xlink" fill="none" version="1.1" width="136" height="142" viewBox="0 0 136 142"><g><path d="M65.4349,0C59.7569,0,55.1051,4.63661,54.9259,10.471L53.4515,59.0658L45.8201,21.479C44.661,15.7682,39.2984,12.033,33.7069,13.0455L33.0702,13.1597C27.4819,14.1753,23.6832,19.5682,24.493,25.347L30.953,71.3612L20.9663,46.0049C18.8429,40.612,12.9486,37.9171,7.62916,39.9051L6.91826,40.1706C1.60812,42.1586,-1.22313,48.1071,0.507764,53.6389L20.0823,116.168C23.065,123.562,24.3725,128.939,35.2462,136.397C46.1199,143.855,78.2713,145.359,93.3363,131.566C98.8226,126.54,106.643,117.079,110.852,110.72L133.787,79.131C137.316,74.2752,136.547,67.4284,132.031,63.5296C127.559,59.6402,120.78,60.0914,116.864,64.539L98.665,84.8882L107.017,25.347C107.826,19.5682,104.031,14.1722,98.4393,13.1597L97.8026,13.0455C92.2112,12.0299,86.8485,15.7651,85.6894,21.479L78.0642,59.0658L76.5837,10.471C76.4075,4.63661,71.7557,0,66.0778,0L65.4318,0L65.4349,0Z" fill="#FFFFFF" fill-opacity="1"/></g></svg>