<svg xmlns="http://www.w3.org/2000/svg" xmlns:xlink="http://www.w3.org/1999/xlink" fill="none" version="1.1" width="434" height="445" viewBox="0 0 434 445"><defs><filter id="master_svg0_208_03140" filterUnits="objectBoundingBox" color-interpolation-filters="sRGB" x="-100" y="-70" width="434.00001525878906" height="445"><feFlood flood-opacity="0" result="BackgroundImageFix"/><feColorMatrix in="SourceAlpha" type="matrix" values="0 0 0 0 0 0 0 0 0 0 0 0 0 0 0 0 0 0 127 0"/><feOffset dy="50" dx="20"/><feGaussianBlur stdDeviation="30"/><feColorMatrix type="matrix" values="0 0 0 0 0.003921568859368563 0 0 0 0 0.11372549086809158 0 0 0 0 0.3529411852359772 0 0 0 0.45098039507865906 0"/><feBlend mode="normal" in2="BackgroundImageFix" result="effect1_dropShadow"/><feBlend mode="normal" in="SourceGraphic" in2="effect1_dropShadow" result="shape"/></filter><linearGradient x1="0.5" y1="0" x2="0.5" y2="1" id="master_svg1_188_20272"><stop offset="0%" stop-color="#C461FF" stop-opacity="1"/><stop offset="100%" stop-color="#6E64FF" stop-opacity="1"/></linearGradient></defs><g style="mix-blend-mode:passthrough"><g filter="url(#master_svg0_208_03140)"><path d="M289.69399999999996,196.45600000000002L283.514,192.861C280.53999999999996,191.115,278.873,187.777,279.33500000000004,184.311C279.899,180.434,280.18100000000004,176.506,280.18100000000004,172.449C280.18100000000004,168.3918,279.873,164.4633,279.33500000000004,160.58620000000002C278.873,157.1199,280.488,153.80759999999998,284.33500000000004,151.5738L289.719,148.4669C293.30899999999997,146.4128,294.873,142.0992,293.514,138.2221C291.668,132.9327,289.33500000000004,127.8488,286.642,122.97030000000001C286.001,121.7635,285.283,120.53110000000001,284.53999999999996,119.35C281.69399999999996,114.5998,278.437,110.13210000000001,274.847,105.9469C272.155,102.7887,267.642,102.0698,263.283,104.5861L257.821,107.7442C254.847,109.4902,251.078,109.23349999999999,248.36,107.1023C242.18,102.1981,235.308,98.167,227.84699999999998,95.1885C224.64100000000002,93.90469999999999,222.59,90.7465,222.59,87.3315L222.59,80.1165C222.59,75.98259,219.64100000000002,72.43925,215.59,71.66896C209.539,70.56488,203.35899999999998,70,197,70C190.6409,70,184.4614,70.56488,178.41,71.66896C174.3587,72.43925,171.4099,75.98259,171.4099,80.1165L171.4099,87.3315C171.4099,90.7465,169.3586,93.90469999999999,166.1534,95.1885C158.6918,98.167,151.8199,102.1981,145.6403,107.1023C142.9223,109.23349999999999,139.153,109.4902,136.17860000000002,107.7442L129.9478,104.12389999999999C126.358,102.0698,121.8451,102.7887,119.1527,105.9726C115.5629,110.15780000000001,112.3321,114.6512,109.46027,119.37559999999999C108.74231,120.5824,107.99871,121.8149,107.35768,122.99600000000001C104.66533,127.8745,102.33196,132.95839999999998,100.485784,138.2477C99.12679,142.1249,100.690916,146.4385,104.28071,148.49259999999998L110.4603,152.0873C113.43469999999999,153.8333,115.1014,157.1712,114.6398,160.6375C114.0757,164.5147,113.7937,168.44310000000002,113.7937,172.5C113.7937,176.55700000000002,114.1014,180.485,114.6398,184.362C115.1014,187.829,113.43469999999999,191.14100000000002,110.4603,192.913L104.28071,196.507C100.690916,198.562,99.12679,202.875,100.485784,206.752C102.33196,212.042,104.66533,217.126,107.35768,222.004C107.99871,223.211,108.71667,224.443,109.46027,225.624C112.3065,230.375,115.5629,234.842,119.1527,239.027C121.8451,242.186,126.358,242.905,129.9478,240.876L136.17860000000002,237.256C139.153,235.51,142.9223,235.767,145.6403,237.898C151.8199,242.802,158.6918,246.833,166.1534,249.812C169.3586,251.095,171.4099,254.254,171.4099,257.668L171.4099,264.884C171.4099,269.017,174.3587,272.56100000000004,178.41,273.331C184.4614,274.435,190.6409,275,197,275C203.35899999999998,275,209.539,274.435,215.59,273.331C219.64100000000002,272.56100000000004,222.59,269.017,222.59,264.884L222.59,257.668C222.59,254.254,224.64100000000002,251.095,227.84699999999998,249.812C235.308,246.833,242.18,242.802,248.36,237.898C251.078,235.767,254.847,235.51,257.821,237.256L264.052,240.876C267.642,242.93,272.155,242.211,274.847,239.027C278.437,234.842,281.668,230.349,284.53999999999996,225.624C285.25800000000004,224.418,286.001,223.185,286.642,222.004C289.33500000000004,217.126,291.668,212.042,293.514,206.752C294.848,202.824,293.283,198.51,289.69399999999996,196.45600000000002ZM197,210.886C175.7946,210.886,158.6148,193.683,158.6148,172.449C158.6148,151.21429999999998,175.7946,134.0112,197,134.0112C218.20499999999998,134.0112,235.385,151.21429999999998,235.385,172.449C235.385,193.683,218.20499999999998,210.886,197,210.886Z" fill="url(#master_svg1_188_20272)" fill-opacity="1"/></g><g style="mix-blend-mode:passthrough"><ellipse cx="197.00000762939453" cy="173.01507568359375" rx="39.2127685546875" ry="39.145729064941406" fill="#FFFFFF" fill-opacity="1"/></g></g></svg>