<svg xmlns="http://www.w3.org/2000/svg" xmlns:xlink="http://www.w3.org/1999/xlink" fill="none" version="1.1" width="430" height="448" viewBox="0 0 430 448"><defs><filter id="master_svg0_261_13331" filterUnits="objectBoundingBox" color-interpolation-filters="sRGB" x="-100" y="-70" width="430" height="448"><feFlood flood-opacity="0" result="BackgroundImageFix"/><feColorMatrix in="SourceAlpha" type="matrix" values="0 0 0 0 0 0 0 0 0 0 0 0 0 0 0 0 0 0 127 0"/><feOffset dy="50" dx="20"/><feGaussianBlur stdDeviation="30"/><feColorMatrix type="matrix" values="0 0 0 0 0.003921568859368563 0 0 0 0 0.11372549086809158 0 0 0 0 0.3529411852359772 0 0 0 0.45098039507865906 0"/><feBlend mode="normal" in2="BackgroundImageFix" result="effect1_dropShadow"/><feBlend mode="normal" in="SourceGraphic" in2="effect1_dropShadow" result="shape"/></filter><linearGradient x1="0.5" y1="0" x2="0.5" y2="1" id="master_svg1_194_00637"><stop offset="0%" stop-color="#C361FF" stop-opacity="1"/><stop offset="100%" stop-color="#7164FF" stop-opacity="1"/></linearGradient></defs><g style="mix-blend-mode:passthrough"><g filter="url(#master_svg0_261_13331)"><path d="M278.031,113.6129C285.512,118.086,290,125.5412,290,132.9964L290,215.004C290,223.95,285.512,231.405,278.031,234.387L206.22,274.645C198.74020000000002,279.118,189.7638,279.118,183.77949999999998,274.645L111.9685,234.387C104.48819,229.914,100,222.459,100,215.004L100,132.9964C100,124.05019999999999,104.48819,116.595,111.9685,113.6129L183.77949999999998,73.35484C191.25979999999998,68.88172,200.236,68.88172,206.22,73.35484L278.031,113.6129Z" fill="url(#master_svg1_194_00637)" fill-opacity="1"/></g><g style="mix-blend-mode:passthrough"><path d="M205,255.531C205,257.072,206.66874,258.034,208.00207,257.262L270.0124,221.3612C273.7182,219.2157,276,215.2582,276,210.9761L276,139.72223C276,138.954619,275.1709,138.473227,274.5043,138.853748L206.51283,177.6628C205.577404,178.1967,205,179.1912,205,180.2682L205,255.531Z" fill="#FFFFFF" fill-opacity="1"/></g></g></svg>