<svg xmlns="http://www.w3.org/2000/svg" xmlns:xlink="http://www.w3.org/1999/xlink" fill="none" version="1.1" width="42" height="42" viewBox="0 0 42 42"><g><path d="M41.4747,22.9853L22.8381,0.883252C21.8922,-0.294417,20.1078,-0.294417,19.1618,0.883252L0.52527,22.9853C-0.047114,23.6979,-0.161684,24.6779,0.230751,25.5046C0.623148,26.3313,1.45277,26.8577,2.36342,26.8577C3.66888,26.8577,5.53704,27.922,5.53704,29.2355L5.53704,39.6222C5.53704,40.9354,6.59514,42,7.90037,42L12.1244,42C13.4296,42,14.4877,40.9354,14.4877,39.6222L14.4877,32.5568C14.4877,31.2436,15.5458,30.179,16.851,30.179L25.149,30.179C26.4542,30.179,27.5123,31.2436,27.5123,32.5568L27.5123,39.6222C27.5123,40.9354,28.5704,42,29.8756,42L34.0996,42C35.4049,42,36.463,40.9354,36.463,39.6222L36.463,29.2355C36.463,27.922,38.3311,26.8577,39.6366,26.8577C40.5472,26.8577,41.3768,26.3314,41.7692,25.5046C42.1617,24.6779,42.0471,23.6979,41.4747,22.9853Z" fill="#FFFFFF" fill-opacity="1"/></g></svg>