<svg xmlns="http://www.w3.org/2000/svg" xmlns:xlink="http://www.w3.org/1999/xlink" fill="none" version="1.1" width="596.9849853515625" height="506" viewBox="0 0 596.9849853515625 506"><defs><filter id="master_svg0_231_12928" filterUnits="objectBoundingBox" color-interpolation-filters="sRGB" x="-100" y="-70" width="297.76414489746094" height="364.0411376953125"><feFlood flood-opacity="0" result="BackgroundImageFix"/><feColorMatrix in="SourceAlpha" type="matrix" values="0 0 0 0 0 0 0 0 0 0 0 0 0 0 0 0 0 0 127 0"/><feOffset dy="50" dx="20"/><feGaussianBlur stdDeviation="30"/><feColorMatrix type="matrix" values="0 0 0 0 0.003921568859368563 0 0 0 0 0.11372549086809158 0 0 0 0 0.3529411852359772 0 0 0 0.45098039507865906 0"/><feBlend mode="normal" in2="BackgroundImageFix" result="effect1_dropShadow"/><feBlend mode="normal" in="SourceGraphic" in2="effect1_dropShadow" result="shape"/></filter><linearGradient x1="0.5" y1="0" x2="0.5" y2="1" id="master_svg1_194_00637"><stop offset="0%" stop-color="#C361FF" stop-opacity="1"/><stop offset="100%" stop-color="#7164FF" stop-opacity="1"/></linearGradient><filter id="master_svg2_231_12924" filterUnits="objectBoundingBox" color-interpolation-filters="sRGB" x="-100" y="-70" width="297.76456451416016" height="364.0409164428711"><feFlood flood-opacity="0" result="BackgroundImageFix"/><feColorMatrix in="SourceAlpha" type="matrix" values="0 0 0 0 0 0 0 0 0 0 0 0 0 0 0 0 0 0 127 0"/><feOffset dy="50" dx="20"/><feGaussianBlur stdDeviation="30"/><feColorMatrix type="matrix" values="0 0 0 0 0.003921568859368563 0 0 0 0 0.11372549086809158 0 0 0 0 0.3529411852359772 0 0 0 0.45098039507865906 0"/><feBlend mode="normal" in2="BackgroundImageFix" result="effect1_dropShadow"/><feBlend mode="normal" in="SourceGraphic" in2="effect1_dropShadow" result="shape"/></filter><linearGradient x1="0.5" y1="0" x2="0.5" y2="1" id="master_svg3_194_00637"><stop offset="0%" stop-color="#C361FF" stop-opacity="1"/><stop offset="100%" stop-color="#7164FF" stop-opacity="1"/></linearGradient><filter id="master_svg4_231_12927" filterUnits="objectBoundingBox" color-interpolation-filters="sRGB" x="-100" y="-70" width="435.9503631591797" height="506"><feFlood flood-opacity="0" result="BackgroundImageFix"/><feColorMatrix in="SourceAlpha" type="matrix" values="0 0 0 0 0 0 0 0 0 0 0 0 0 0 0 0 0 0 127 0"/><feOffset dy="50" dx="20"/><feGaussianBlur stdDeviation="30"/><feColorMatrix type="matrix" values="0 0 0 0 0.003921568859368563 0 0 0 0 0.11372549086809158 0 0 0 0 0.3529411852359772 0 0 0 0.45098039507865906 0"/><feBlend mode="normal" in2="BackgroundImageFix" result="effect1_dropShadow"/><feBlend mode="normal" in="SourceGraphic" in2="effect1_dropShadow" result="shape"/></filter><linearGradient x1="0.5" y1="0" x2="0.5" y2="1" id="master_svg5_188_16067"><stop offset="0%" stop-color="#C661FF" stop-opacity="1"/><stop offset="100%" stop-color="#6A64FF" stop-opacity="1"/></linearGradient></defs><g style="mix-blend-mode:passthrough"><g style="mix-blend-mode:passthrough"><g filter="url(#master_svg0_231_12928)"><path d="M151.7051993013382,135.61943775939943L157.4917993013382,113.70643775939942Q158.2893993013382,110.68603775939941,156.75129930133818,107.9865677593994Q155.2129993013382,105.28677775939941,152.2332993013382,104.47662775939942L132.3013993013382,99.05333475939942Q129.3186993013382,98.24237375939941,126.64979930133819,99.80647775939941Q123.9842993013382,101.36863775939942,123.1867993013382,104.38876775939941Q122.3891993013382,107.40896775939942,123.9260993013382,110.10973775939941Q125.4641993013382,112.81233775939941,128.4446993013382,113.62273775939941L131.2382993013382,114.38233775939942Q122.2150993013382,119.01733775939941,115.22169930133819,126.6563377593994Q105.6387493013382,137.1239377593994,101.97285930133819,151.00613775939942Q98.9564393013382,162.4288377593994,100.5519943013382,174.04833775939943Q102.09275930133819,185.26893775939942,107.70082930133819,195.1238377593994Q113.3090993013382,204.97943775939942,122.11719930133819,211.94343775939942Q131.2388993013382,219.1564377593994,142.4988993013382,222.21843775939942L144.7038993013382,222.8174377593994L144.79159930133818,222.48543775939942Q146.5287993013382,222.4124377593994,148.1498993013382,221.46343775939943Q150.8158993013382,219.90343775939942,151.6134993013382,216.8824377593994Q152.4109993013382,213.86243775939943,150.8740993013382,211.1614377593994Q149.3359993013382,208.4594377593994,146.3555993013382,207.64843775939943Q138.0130993013382,205.3804377593994,131.2611993013382,200.0434377593994Q124.7373993013382,194.8858377593994,120.5824993013382,187.58483775939942Q116.4272993013382,180.28333775939942,115.28669930133819,171.97203775939943Q114.10609930133819,163.3693377593994,116.3416993013382,154.90343775939942Q119.0702993013382,144.5706377593994,126.2025993013382,136.7973377593994Q131.5321993013382,130.9886377593994,138.4434993013382,127.52933775939941L137.3372993013382,131.71853775939942Q136.5398993013382,134.73803775939942,138.0759993013382,137.43873775939943Q139.6132993013382,140.1415377593994,142.5915993013382,140.95133775939942Q145.5739993013382,141.7622377593994,148.2415993013382,140.2006377593994Q150.9074993013382,138.6400377593994,151.7051993013382,135.61943775939943ZM149.5031993013382,135.02563775939942L155.2898993013382,113.11263775939942C156.0289993013382,110.31343775939942,154.3985993013382,107.45390775939941,151.6394993013382,106.70375775939941L131.7078993013382,101.28056775939942C131.3401993013382,101.18059775939942,130.97139930133818,101.12336775939941,130.6064993013382,101.10588775939941C130.9715993013382,101.12333775939942,131.3406993013382,101.18056775939941,131.7085993013382,101.28059775939941L151.64009930133818,106.70377775939942C154.3991993013382,107.45393775939941,156.0296993013382,110.31353775939941,155.2904993013382,113.11263775939942L149.5038993013382,135.02573775939942C148.8653993013382,137.4432377593994,146.6685993013382,139.0063377593994,144.30179930133818,138.89973775939941C146.6682993013382,139.00603775939942,148.8648993013382,137.44303775939943,149.5031993013382,135.02563775939942ZM141.8557993013382,123.53503775939942L141.8556993013382,123.53533775939941C140.96209930133818,123.87063775939941,140.0797993013382,124.23433775939941,139.21029930133818,124.62563775939941C127.2930993013382,129.9887377593994,117.7782993013382,140.53343775939942,114.14039930133819,154.3096377593994C107.74851930133819,178.51463775939942,121.90449930133819,203.3894377593994,145.7626993013382,209.8754377593994C148.52189930133818,210.6264377593994,150.1513993013382,213.4894377593994,149.4121993013382,216.28843775939941C148.8123993013382,218.5604377593994,146.8364993013382,220.0774377593994,144.6365993013382,220.16343775939941C146.83619930133818,220.0774377593994,148.8117993013382,218.5604377593994,149.41159930133819,216.28843775939941C150.1507993013382,213.4894377593994,148.5212993013382,210.6264377593994,145.7620993013382,209.8754377593994C121.9037993013382,203.3894377593994,107.7478993013382,178.51463775939942,114.1397993013382,154.3096377593994C118.04319930133819,139.5280377593994,128.7124993013382,128.4669377593994,141.8557993013382,123.53503775939942ZM143.0925993013382,219.98743775939943L143.0919993013382,219.98743775939943L143.0910993013382,219.9904377593994L143.0916993013382,219.9904377593994L143.0925993013382,219.98743775939943Z" fill-rule="evenodd" fill="url(#master_svg1_194_00637)" fill-opacity="1"/></g><g filter="url(#master_svg2_231_12924)"><path d="M405.2794074316406,183.37950329589842L399.4927124316406,205.29250329589843Q398.6951124316406,208.31250329589844,400.23323743164065,211.01250329589845Q401.7714974316406,213.71250329589844,404.75120743164064,214.52250329589845L424.68336743164065,219.94550329589845Q427.6660674316406,220.75650329589843,430.33486743164065,219.19250329589843Q433.00046743164063,217.63050329589845,433.79796743164064,214.61050329589844Q434.59556743164063,211.58950329589845,433.05856743164065,208.88950329589844Q431.52056743164064,206.18650329589843,428.54006743164064,205.37650329589843L425.74636743164064,204.61650329589844Q434.76966743164064,199.98150329589845,441.76306743164065,192.34260329589844Q451.3460674316406,181.87510329589844,455.0120674316406,167.99280329589845Q458.02846743164065,156.57020329589844,456.4328674316406,144.95070329589845Q454.8920674316406,133.73010329589843,449.28396743164063,123.87520329589844Q443.6757674316406,114.02000329589843,434.86746743164065,107.05520329589844Q425.7457674316406,99.84256329589844,414.48566743164065,96.78109729589843L412.2808674316406,96.18162536589844L412.1932674316406,96.51375629589843Q410.4558674316406,96.58660929589844,408.83464743164063,97.53560329589844Q406.1686774316406,99.09619329589843,405.3710674316406,102.11662329589844Q404.57351743164065,105.13680329589843,406.1104774316406,107.83750329589844Q407.6485274316406,110.54020329589844,410.6289674316406,111.35050329589843Q418.9715674316406,113.61870329589844,425.7235674316406,118.95620329589843Q432.2473674316406,124.11330329589843,436.4022674316406,131.41430329589843Q440.5575674316406,138.71570329589844,441.6981674316406,147.02700329589845Q442.8786674316406,155.62980329589845,440.64306743164065,164.09560329589846Q437.9144674316406,174.42840329589842,430.78216743164063,182.20170329589843Q425.4524674316406,188.01040329589844,418.5410674316406,191.46960329589842L419.64736743164065,187.28040329589845Q420.4447674316406,184.26090329589846,418.90866743164065,181.56020329589842Q417.37136743164064,178.85740329589845,414.3929674316406,178.04760329589845Q411.4106674316406,177.23680329589843,408.7430274316406,178.79830329589845Q406.0770674316406,180.35890329589844,405.2794074316406,183.37950329589842ZM407.4815874316406,183.97330329589843L401.69487743164063,205.88650329589842C400.9556974316406,208.68550329589846,402.5862074316406,211.54450329589844,405.3453074316406,212.29550329589844L425.2770674316406,217.71850329589844C425.6662674316406,217.82450329589844,426.0566674316406,217.88250329589843,426.44246743164064,217.89550329589844C426.0564674316406,217.88250329589843,425.6656674316406,217.82450329589844,425.2761674316406,217.71850329589844L405.34443743164064,212.29550329589844C402.58533743164065,211.54450329589844,400.95482743164064,208.68550329589846,401.69401743164065,205.88650329589842L407.48071743164064,183.97330329589843C408.11337743164063,181.57750329589845,410.27646743164064,180.02090329589845,412.61886743164064,180.09680329589844C410.27686743164065,180.02130329589843,408.1141674316406,181.57780329589843,407.4815874316406,183.97330329589843ZM415.1291674316406,195.46350329589842L415.12906743164064,195.46390329589843C428.2724674316406,190.53210329589842,438.9418674316406,179.47090329589844,442.84526743164065,164.68940329589844C449.2371674316406,140.48450329589843,435.0811674316406,115.61000329589844,411.2226674316406,109.12320329589843C408.4635274316406,108.37310329589843,406.83401743164063,105.50972329589844,407.5732374316406,102.71043329589844C408.18694743164065,100.38641329589844,410.2410674316406,98.85194329589844,412.50196743164065,98.83157329589844C410.2407674316406,98.85155329589844,408.18615743164065,100.38610329589844,407.5723674316406,102.71042329589844C406.8331474316406,105.50973329589844,408.4626474316406,108.37310329589843,411.22186743164065,109.12320329589843C435.0802674316406,115.61000329589844,449.23636743164064,140.48450329589843,442.84436743164065,164.68940329589844C439.20646743164065,178.46560329589843,429.69156743164064,189.01020329589844,417.7742674316406,194.37330329589844C416.90486743164064,194.76450329589844,416.0227674316406,195.12820329589846,415.1291674316406,195.46350329589842ZM413.89196743164064,99.01186329589844L413.8927674316406,99.01208329589844L413.8936674316406,99.00859329589844L413.89286743164064,99.00837329589844L413.89196743164064,99.01186329589844Z" fill-rule="evenodd" fill="url(#master_svg3_194_00637)" fill-opacity="1"/></g><g filter="url(#master_svg4_231_12927)"><path d="M376.43956298828124,169.2047C376.43956298828124,114.6421,332.3515629882812,70,278.4647629882812,70C224.57846298828125,70,180.48956298828125,114.6421,180.48956298828125,169.2047C180.48956298828125,223.059,253.27116298828125,310.217,273.56606298828126,333.601C276.36526298828124,336.436,281.2645629882812,337.144,284.06356298828126,333.601C303.65856298828123,310.217,376.43956298828124,224.476,376.43956298828124,169.2047ZM229.47716298828124,169.2047C229.47716298828124,141.5691,251.17166298828124,119.6024,278.4647629882812,119.6024C305.7575629882813,119.6024,327.4525629882812,141.5691,327.4525629882812,169.2047C327.4525629882812,196.84,305.7575629882813,218.807,278.4647629882812,218.807C251.17166298828124,218.807,229.47716298828124,196.84,229.47716298828124,169.2047Z" fill="url(#master_svg5_188_16067)" fill-opacity="1"/></g></g><g style="mix-blend-mode:passthrough"><ellipse cx="279.4142608642578" cy="167.90277862548828" rx="51.26432800292969" ry="51.72222137451172" fill="#FFFFFF" fill-opacity="1"/></g></g></svg>