<svg xmlns="http://www.w3.org/2000/svg" xmlns:xlink="http://www.w3.org/1999/xlink" fill="none" version="1.1" width="86" height="86" viewBox="0 0 86 86"><defs><filter id="master_svg0_208_03099" filterUnits="objectBoundingBox" color-interpolation-filters="sRGB" x="-20" y="-15" width="86" height="86"><feFlood flood-opacity="0" result="BackgroundImageFix"/><feColorMatrix in="SourceAlpha" type="matrix" values="0 0 0 0 0 0 0 0 0 0 0 0 0 0 0 0 0 0 127 0"/><feOffset dy="5" dx="0"/><feGaussianBlur stdDeviation="5"/><feColorMatrix type="matrix" values="0 0 0 0 0.12156862765550613 0 0 0 0 0.1882352977991104 0 0 0 0 0.4588235318660736 0 0 0 1 0"/><feBlend mode="normal" in2="BackgroundImageFix" result="effect1_dropShadow"/><feBlend mode="normal" in="SourceGraphic" in2="effect1_dropShadow" result="shape"/></filter><linearGradient x1="0.5" y1="0" x2="0.5" y2="1" id="master_svg1_188_12969"><stop offset="0%" stop-color="#CA61FF" stop-opacity="1"/><stop offset="100%" stop-color="#6A64FF" stop-opacity="1"/></linearGradient></defs><g style="mix-blend-mode:passthrough"><g filter="url(#master_svg0_208_03099)"><path d="M52.2,24.2C44.61,24.2,38.4,30.41,38.4,38C38.4,45.82,45.817499999999995,54.79,49.4975,58.7L27.7625,58.7C24.7725,58.7,22.3,56.4,22.3,53.525C22.3,50.7075,24.83,48.35,27.7625,48.35L30.5225,48.35C33.685,48.35,36.2725,45.7625,36.2725,42.6C36.2725,39.4375,33.685,36.85,30.5225,36.85L24.6,36.85C23.335,36.85,22.3,35.815,22.3,34.55C22.3,33.285,23.335,32.25,24.6,32.25L26.9,32.25C27.015,32.25,27.13,32.25,27.245,32.192499999999995L27.302500000000002,32.192499999999995C27.4175,32.135000000000005,27.5325,32.0775,27.59,32.019999999999996C27.8775,31.79,33.8,27.0175,33.8,21.9C33.8,18.105,30.695,15,26.9,15C23.105,15,20,18.105,20,21.9C20,25.0625,22.2425,28.052500000000002,24.025,30.0075C21.725,30.295,20,32.25,20,34.55C20,37.08,22.07,39.15,24.6,39.15L30.5225,39.15C32.42,39.15,33.9725,40.7025,33.9725,42.6C33.9725,44.4975,32.42,46.05,30.5225,46.05L27.7625,46.05C23.5075,46.05,20,49.385,20,53.525C20,57.665,23.5075,61,27.7625,61L52.545,61C52.6025,61,52.6025,61,52.66,60.9425C52.7175,60.9425,52.7175,60.885,52.775,60.885C52.8325,60.885,52.8325,60.8275,52.89,60.8275C52.9475,60.8275,52.9475,60.77,53.005,60.77L53.0625,60.7125C53.5225,60.195,66,48.1775,66,38C66,30.41,59.79,24.2,52.2,24.2Z" fill="url(#master_svg1_188_12969)" fill-opacity="1"/></g><g style="mix-blend-mode:passthrough"><ellipse cx="52.409090518951416" cy="36.25757551193237" rx="5.9242424964904785" ry="5.9242424964904785" fill="#FFFFFF" fill-opacity="1"/></g><g style="mix-blend-mode:passthrough"><ellipse cx="26.969696760177612" cy="21.272727251052856" rx="2.7878787517547607" ry="2.7878787517547607" fill="#FFFFFF" fill-opacity="1"/></g></g></svg>