<svg xmlns="http://www.w3.org/2000/svg" xmlns:xlink="http://www.w3.org/1999/xlink" fill="none" version="1.1" width="24" height="40" viewBox="0 0 24 40"><g><path d="M20.8466,39C20.2998,39,19.7531,38.7995,19.3336,38.3985L1.6403210000000001,21.4838C1.230814,21.0919,1,20.5585,1,20.0008C1,19.443,1.230814,18.9096,1.6403210000000001,18.5177L19.3336,1.601994C20.1795,0.792763,21.5432,0.799899,22.3786,1.6203189999999998C23.2144,2.43968,23.2061,3.75883,22.3596,4.568020000000001L6.21783,20.0008L22.3596,35.4324C23.206,36.2416,23.2144,37.5608,22.3786,38.3801C21.9575,38.7934,21.4023,39,20.8466,39Z" fill="#FFFFFF" fill-opacity="1"/><path d="M23.079,39.0938Q22.1557,40,20.8466,40Q19.5618,40,18.6426,39.1213L0.9492969,22.2066Q0,21.2982,0,20.0008Q0,18.7033,0.948953,17.7952L18.6425,0.879185Q19.5694,-0.007430000000000048,20.8658,0.000053999999999998494Q22.1636,0.007549000000000028,23.0793,0.9068747Q24.0082,1.817438,23.9999,3.10438Q23.9917,4.391220000000001,23.0507,5.29086L6.90888,20.7236L6.21783,20.0008L6.90886,19.2779L23.0507,34.7096Q23.9917,35.6093,23.9999,36.8961Q24.0082,38.183,23.0786,39.0942L23.079,39.0938ZM21.6785,37.666Q22.0028,37.3482,22,36.9089Q21.9972,36.4694,21.6686,36.1553L4.77073,20.0008L21.6686,3.84519Q21.9972,3.53109,22,3.0916Q22.0028,2.65229,21.6779,2.33376Q21.3409,2.0028300000000003,20.8543,2.00002Q20.3671,1.997207,20.0246,2.3247999999999998L2.33169,19.2402Q2,19.5576,2,20.0008Q2,20.4439,2.33135,20.7609L20.0246,37.6756Q20.3639,38,20.8466,38Q21.3382,38,21.6781,37.6664L21.6785,37.666Z" fill="#FFFFFF" fill-opacity="1"/></g></svg>