<svg xmlns="http://www.w3.org/2000/svg" xmlns:xlink="http://www.w3.org/1999/xlink" fill="none" version="1.1" width="90" height="90" viewBox="0 0 90 90"><g style="mix-blend-mode:passthrough"><g style="mix-blend-mode:passthrough"><ellipse cx="45" cy="45" rx="45" ry="45" fill="#D94040" fill-opacity="1"/></g><g style="mix-blend-mode:passthrough"><g><path d="M37.36564764221191,59.00378974304199C38.18139764221191,59.00378974304199,38.84095764221191,58.39888974304199,38.84095764221191,57.65428974304199C38.84095764221191,57.65428974304199,38.84095764221191,40.642159743041994,38.84095764221191,40.642159743041994C38.84095764221191,39.89512374304199,38.17886764221191,39.29018974304199,37.36564764221191,39.29018974304199C36.552861642211916,39.29018974304199,35.890817642212006,39.89512374304199,35.890817642212006,40.642159743041994C35.890817642212006,40.642159743041994,35.890817642212006,57.65428974304199,35.890817642212006,57.65428974304199C35.91965294221191,58.39578974304199,36.584857642211915,59.00378974304199,37.36564764221191,59.00378974304199C37.36564764221191,59.00378974304199,37.36564764221191,59.00378974304199,37.36564764221191,59.00378974304199C37.36564764221191,59.00378974304199,37.36564764221191,59.00378974304199,37.36564764221191,59.00378974304199ZM53.63381764221191,59.00378974304199C54.44961764221192,59.00378974304199,55.10911764221191,58.39888974304199,55.10911764221191,57.65428974304199C55.10911764221191,57.65428974304199,55.10911764221191,40.642159743041994,55.10911764221191,40.642159743041994C55.10911764221191,39.89512374304199,54.44701764221192,39.29018974304199,53.63381764221191,39.29018974304199C52.82101764221191,39.29018974304199,52.15891764221192,39.89512374304199,52.15891764221192,40.642159743041994C52.15891764221192,40.642159743041994,52.15891764221192,57.65428974304199,52.15891764221192,57.65428974304199C52.15891764221192,58.39888974304199,52.818517642211916,59.00378974304199,53.63381764221191,59.00378974304199C53.63381764221191,59.00378974304199,53.63381764221191,59.00378974304199,53.63381764221191,59.00378974304199C53.63381764221191,59.00378974304199,53.63381764221191,59.00378974304199,53.63381764221191,59.00378974304199ZM45.50020764221191,59.00378974304199C46.315517642211915,59.00378974304199,46.97501764221191,58.39888974304199,46.97501764221191,57.65428974304199C46.97501764221191,57.65428974304199,46.97501764221191,40.642159743041994,46.97501764221191,40.642159743041994C46.97501764221191,39.89512374304199,46.31241764221191,39.29018974304199,45.50020764221191,39.29018974304199C44.68698764221192,39.29018974304199,44.02440764221191,39.89512374304199,44.02440764221191,40.642159743041994C44.02440764221191,40.642159743041994,44.02440764221191,57.65428974304199,44.02440764221191,57.65428974304199C44.02440764221191,58.39888974304199,44.68396764221191,59.00378974304199,45.50020764221191,59.00378974304199C45.50020764221191,59.00378974304199,45.50020764221191,59.00378974304199,45.50020764221191,59.00378974304199C45.50020764221191,59.00378974304199,45.50020764221191,59.00378974304199,45.50020764221191,59.00378974304199Z" fill="#FCFDFF" fill-opacity="1"/><path d="M44.17440764221192,57.65428974304199Q44.17440764221192,58.14698974304199,44.55748764221191,58.49758974304199Q44.94665764221192,58.85378974304199,45.50020764221191,58.85378974304199Q46.053117642211916,58.85378974304199,46.442017642211916,58.49758974304199Q46.82501764221192,58.14698974304199,46.82501764221192,57.65428974304199L46.82501764221192,40.642159743041994Q46.82501764221192,40.14834474304199,46.440917642211915,39.79667074304199Q46.05151764221191,39.44018974304199,45.50020764221191,39.44018974304199Q44.94817764221192,39.44018974304199,44.558617642211914,39.79669374304199Q44.17440764221192,40.14829574304199,44.17440764221192,40.642159743041994L44.17440764221192,57.65428974304199ZM43.874407642211914,57.65428974304199L43.874407642211914,40.642159743041994Q43.874407642211914,40.016174743041994,44.356077642211915,39.57537774304199Q44.83162764221191,39.140189743041994,45.50020764221191,39.140189743041994Q46.16811764221191,39.140189743041994,46.64351764221192,39.57540074304199Q47.125017642211915,40.01626374304199,47.125017642211915,40.642159743041994L47.125017642211915,57.65428974304199Q47.125017642211915,58.27898974304199,46.64461764221191,58.71888974304199Q46.169717642211914,59.153789743042,45.50020764221191,59.153789743042Q44.830087642211915,59.153789743042,44.35494764221191,58.71888974304199Q43.874407642211914,58.27908974304199,43.874407642211914,57.65428974304199ZM52.30891764221191,57.65428974304199Q52.30891764221191,58.146889743041996,52.69191764221192,58.49758974304199Q53.080917642211915,58.85378974304199,53.63381764221191,58.85378974304199Q54.18701764221191,58.85378974304199,54.57611764221191,58.49758974304199Q54.959117642211915,58.14698974304199,54.959117642211915,57.65428974304199L54.959117642211915,40.642159743041994Q54.959117642211915,40.148235743041994,54.575117642211914,39.79667074304199Q54.18571764221191,39.44018974304199,53.63381764221191,39.44018974304199Q53.08211764221191,39.44018974304199,52.69291764221191,39.79665774304199Q52.30891764221191,40.14824774304199,52.30891764221191,40.642159743041994L52.30891764221191,57.65428974304199ZM52.00891764221191,57.65428974304199L52.00891764221191,40.642159743041994Q52.00891764221191,40.01618974304199,52.49031764221191,39.57541374304199Q52.965517642211914,39.140189743041994,53.63381764221191,39.140189743041994Q54.30231764221192,39.140189743041994,54.77771764221191,39.57540074304199Q55.25911764221192,40.01615574304199,55.25911764221192,40.642159743041994L55.25911764221192,57.65428974304199Q55.25911764221192,58.27908974304199,54.77861764221191,58.71888974304199Q54.30361764221192,59.153789743042,53.63381764221191,59.153789743042Q52.96431764221191,59.153789743042,52.489317642211915,58.71888974304199Q52.00891764221191,58.27898974304199,52.00891764221191,57.65428974304199ZM36.040704642211914,57.64848974304199Q36.05989264221191,58.14188974304199,36.44748764221191,58.49638974304199Q36.83817764221192,58.85378974304199,37.36564764221191,58.85378974304199Q37.91885764221191,58.85378974304199,38.307927642211915,58.49758974304199Q38.69095764221191,58.14698974304199,38.69095764221191,57.65428974304199L38.69095764221191,40.642159743041994Q38.69095764221191,40.14823174304199,38.306967642211916,39.79667074304199Q37.91760764221191,39.44018974304199,37.36564764221191,39.44018974304199Q36.81399464221192,39.44018974304199,36.42474264221191,39.79665774304199Q36.04081764221191,40.14824774304199,36.04081764221191,40.642159743041994L36.04081764221191,57.65428974304199L35.890817642212006,57.65428974304199L36.040704642211914,57.64848974304199ZM35.740930642211914,57.66008974304199L35.740817642211915,57.657189743042L35.740817642211915,40.642159743041994Q35.740817642211915,40.01619074304199,36.22213264221192,39.57541374304199Q36.69738364221191,39.140189743041994,37.36564764221191,39.140189743041994Q38.034197642211915,39.140189743041994,38.50955764221192,39.57540074304199Q38.99096764221191,40.01615274304199,38.99095764221192,40.642159743041994L38.99095764221192,57.65428974304199Q38.99095764221192,58.27908974304199,38.51049764221192,58.71888974304199Q38.03543764221192,59.153789743042,37.36564764221191,59.153789743042Q36.721669642211914,59.153789743042,36.245010642211916,58.71778974304199Q35.76498564221191,58.278689743041994,35.740930642211914,57.66008974304199Z" fill="#FFFFFF" fill-opacity="1"/></g><g><path d="M67.52459999999999,30.30931C67.52459999999999,30.30931,56.2608,30.30931,56.2608,30.30931C56.2608,30.30931,56.2608,28.46046,56.2608,28.46046C56.2608,26.55209,54.5653,25,52.4827,25C52.4827,25,38.5574,25,38.5574,25C36.4748,25,34.7797,26.55209,34.7797,28.46046C34.7797,28.46046,34.7797,30.30931,34.7797,30.30931C34.7797,30.30931,23.47534,30.30931,23.47534,30.30931C22.65954,30.30931,22.000000000000046,30.9142,22.000000000000046,31.65874C22.000000000000046,32.40625,22.65954,33.011179999999996,23.47534,33.011179999999996C23.47534,33.011179999999996,28.94235,33.011179999999996,28.94235,33.011179999999996C28.94235,33.011179999999996,28.94235,61.3969,28.94235,61.3969C28.94235,64.4867,31.690080000000002,67,35.0633,67C35.0633,67,55.9366,67,55.9366,67C59.3094,67,62.0545,64.4867,62.0545,61.3945C62.0545,61.3945,62.0545,32.97665,62.0545,32.97665C62.0545,32.97665,67.52459999999999,32.97665,67.52459999999999,32.97665C68.3404,32.97665,69,32.371719999999996,69,31.624209999999998C69,30.88571,68.35210000000001,30.30931,67.52459999999999,30.30931C67.52459999999999,30.30931,67.52459999999999,30.30931,67.52459999999999,30.30931C67.52459999999999,30.30931,67.52459999999999,30.30931,67.52459999999999,30.30931ZM37.6898,28.46046C37.6838,28.02716,38.0657,27.67286,38.5345,27.66739C38.5345,27.66739,52.4827,27.66739,52.4827,27.66739C52.954499999999996,27.664369999999998,53.3421,28.00961,53.3477,28.44343C53.3477,28.44343,53.3477,30.30931,53.3477,30.30931C53.3477,30.30931,37.6898,30.30931,37.6898,30.30931C37.6898,30.30931,37.6898,28.46046,37.6898,28.46046C37.6898,28.46046,37.6898,28.46046,37.6898,28.46046ZM59.1039,61.3945C59.1039,62.9947,57.6839,64.298,55.9366,64.298C55.9366,64.298,35.0633,64.298,35.0633,64.298C33.3161,64.298,31.895580000000002,62.9947,31.895580000000002,61.3945C31.895580000000002,61.3945,31.895580000000002,32.97665,31.895580000000002,32.97665C31.895580000000002,32.97665,59.1039,32.97665,59.1039,32.97665C59.1039,32.97665,59.1039,61.3945,59.1039,61.3945C59.1039,61.3945,59.1039,61.3945,59.1039,61.3945Z" fill="#FCFDFF" fill-opacity="1"/><path d="M59.2539,32.97665L59.2539,61.3945Q59.2539,62.6608,58.2769,63.5569Q57.3051,64.44800000000001,55.9366,64.44800000000001L35.0633,64.44800000000001Q33.6948,64.44800000000001,32.722899999999996,63.5569Q31.74557,62.6608,31.74558,61.3945L31.74558,32.82665L59.2539,32.82665L59.2539,32.97665ZM58.9539,32.97665L59.1039,32.97665L59.1039,33.12665L31.895580000000002,33.12665L31.895580000000002,32.97665L32.0456,32.97665L32.0456,61.3945Q32.0456,62.5289,32.9256,63.3358Q33.8115,64.148,35.0633,64.148L55.9366,64.148Q57.1884,64.148,58.0741,63.3358Q58.9539,62.5289,58.9539,61.3945L58.9539,32.97665ZM37.5398,30.30931L37.5398,28.46046Q37.5344,28.07198,37.8317,27.79394Q38.1222,27.522190000000002,38.5328,27.5174L52.4827,27.51739Q52.8939,27.51475,53.1901,27.77983Q53.4927,28.05069,53.497699999999995,28.4415L53.497699999999995,30.459310000000002L37.5398,30.459310000000002L37.5398,30.30931ZM37.8398,30.30931L37.6898,30.30931L37.6898,30.159309999999998L53.3477,30.159309999999998L53.3477,30.30931L53.1977,30.30931L53.1977,28.44537Q53.1944,28.18632,52.989999999999995,28.00336Q52.780100000000004,27.81549,52.4827,27.81739L38.5363,27.81738Q38.2421,27.82081,38.0366,28.01304Q37.8362,28.20045,37.8398,28.46046L37.8398,30.30931ZM68.85,31.624209999999998Q68.85,31.13778,68.47290000000001,30.80183Q68.0883,30.459310000000002,67.52459999999999,30.459310000000002L56.1108,30.459310000000002L56.1108,28.46046Q56.1108,27.09536,55.0514,26.12521Q53.9865,25.150001,52.4827,25.15L38.5574,25.15Q37.0536,25.15,35.9889,26.12521Q34.9297,27.09532,34.9297,28.46046L34.9297,30.459310000000002L23.47534,30.459310000000002Q22.922088,30.459310000000002,22.533029,30.81546Q22.15,31.1661,22.15,31.65874Q22.15,32.15345,22.533115,32.50471Q22.921909,32.86118,23.47534,32.86118L29.09235,32.86118L29.09235,61.3969Q29.09235,63.6479,30.83914,65.2465Q32.591300000000004,66.85,35.0633,66.85L55.9366,66.85Q58.4082,66.85,60.159,65.2462Q61.9045,63.6473,61.9045,61.3945L61.9045,32.82665L67.52459999999999,32.82665Q68.0781,32.82665,68.46690000000001,32.47018Q68.85,32.11893,68.85,31.624209999999998ZM69.15,31.624209999999998Q69.15,32.25088,68.6696,32.69131Q68.1948,33.12665,67.52459999999999,33.12665L62.0545,33.12665L62.0545,32.97665L62.2045,32.97665L62.2045,61.3945Q62.2045,63.7793,60.3617,65.4674Q58.5248,67.15,55.9366,67.15L35.0633,67.15Q32.4747,67.15,30.6366,65.4678Q28.79235,63.78,28.79235,61.3969L28.79235,33.011179999999996L28.94235,33.011179999999996L28.94235,33.16118L23.47534,33.16118Q22.805195,33.16118,22.330375,32.72584Q21.85,32.2854,21.85,31.65874Q21.85,31.034,22.330461,30.59418Q22.805511,30.159309999999998,23.47534,30.159309999999998L34.7797,30.159309999999998L34.7797,30.30931L34.6297,30.30931L34.6297,28.46046Q34.6297,26.96327,35.7863,25.903978Q36.937,24.85,38.5574,24.85L52.4827,24.85Q54.1031,24.85,55.254,25.903969Q56.4108,26.96331,56.4108,28.46046L56.4108,30.30931L56.2608,30.30931L56.2608,30.159309999999998L67.52459999999999,30.159309999999998Q68.20259999999999,30.159309999999998,68.67240000000001,30.57782Q69.15,31.00325,69.15,31.624209999999998Z" fill="#FFFFFF" fill-opacity="1"/></g></g></g></svg>