<svg xmlns="http://www.w3.org/2000/svg" xmlns:xlink="http://www.w3.org/1999/xlink" fill="none" version="1.1" width="438.6279296875" height="447" viewBox="0 0 438.6279296875 447"><defs><filter id="master_svg0_208_03051" filterUnits="objectBoundingBox" color-interpolation-filters="sRGB" x="-100" y="-70" width="454" height="447"><feFlood flood-opacity="0" result="BackgroundImageFix"/><feColorMatrix in="SourceAlpha" type="matrix" values="0 0 0 0 0 0 0 0 0 0 0 0 0 0 0 0 0 0 127 0"/><feOffset dy="50" dx="20"/><feGaussianBlur stdDeviation="30"/><feColorMatrix type="matrix" values="0 0 0 0 0.003921568859368563 0 0 0 0 0.11372549086809158 0 0 0 0 0.3529411852359772 0 0 0 0.45098039507865906 0"/><feBlend mode="normal" in2="BackgroundImageFix" result="effect1_dropShadow"/><feBlend mode="normal" in="SourceGraphic" in2="effect1_dropShadow" result="shape"/></filter><linearGradient x1="0.5" y1="0" x2="0.5" y2="1" id="master_svg1_188_20420"><stop offset="0%" stop-color="#BC62FF" stop-opacity="1"/><stop offset="100%" stop-color="#6156DA" stop-opacity="1"/></linearGradient><linearGradient x1="0.5" y1="0" x2="0.5" y2="1" id="master_svg2_188_16067"><stop offset="0%" stop-color="#C661FF" stop-opacity="1"/><stop offset="100%" stop-color="#6A64FF" stop-opacity="1"/></linearGradient></defs><g style="mix-blend-mode:passthrough" filter="url(#master_svg0_208_03051)"><g style="mix-blend-mode:passthrough"><path d="M101.549271953125,266.9893C98.078191953125,270.8513,100.819101953125,277,106.011801953125,277L254.773001953125,277C256.422001953125,277,257.999001953125,276.3213,259.13200195312504,275.1235L296.975001953125,235.1235C300.593001953125,231.29838,297.88200195312504,225,292.61600195312496,225L141.962301953125,225C140.259901953125,225,138.637701953125,225.723139,137.499701953125,226.98926L101.549271953125,266.9893Z" fill="url(#master_svg1_188_20420)" fill-opacity="1"/></g><g><path d="M267.552001953125,137.131C267.552001953125,100.209,237.402001953125,70,200.552001953125,70C163.702001953125,70,133.552001953125,100.209,133.552001953125,137.131C133.552001953125,173.574,183.323401953125,232.553,197.202001953125,248.377C199.116301953125,250.295,202.466301953125,250.774,204.380601953125,248.377C217.780601953125,232.553,267.552001953125,174.53300000000002,267.552001953125,137.131ZM167.052001953125,137.131C167.052001953125,118.4302,181.887701953125,103.5655,200.552001953125,103.5655C219.216301953125,103.5655,234.052001953125,118.4302,234.052001953125,137.131C234.052001953125,155.8318,219.216301953125,170.697,200.552001953125,170.697C181.887701953125,170.697,167.052001953125,155.8318,167.052001953125,137.131Z" fill="url(#master_svg2_188_16067)" fill-opacity="1"/></g><g style="mix-blend-mode:passthrough"><ellipse cx="201.052001953125" cy="137" rx="35.5" ry="36" fill="#FFFFFF" fill-opacity="1"/></g></g></svg>