<svg xmlns="http://www.w3.org/2000/svg" xmlns:xlink="http://www.w3.org/1999/xlink" fill="none" version="1.1" width="222" height="218" viewBox="0 0 222 218"><defs><clipPath id="master_svg0_4189_3158"><rect x="0" y="0" width="222" height="218" rx="0"/></clipPath><clipPath id="master_svg1_4189_3165"><g><rect x="0" y="0" width="222" height="218" rx="0" fill="#FFFFFF" fill-opacity="1"/></g></clipPath><clipPath id="master_svg2_4189_3163"><g><rect x="0" y="0" width="222" height="218" rx="0" fill="#FFFFFF" fill-opacity="1"/></g></clipPath></defs><g clip-path="url(#master_svg0_4189_3158)"><g><g><g clipPath="url(#master_svg1_4189_3165)"><g><path d="M109.00040531249999,55.4856692565918C107.3456653125,55.576569256591796,105.7460853125,54.871669256591794,104.6953253125,53.5913692565918C103.5314933125,52.189969256591795,102.9468195125,50.4002692565918,103.0571339125,48.5830692565918L103.0571339125,7.1504792565917965C102.9661268125,4.7605592565917965,104.0665253125,2.4807792565917968,105.9942953125,1.0600482565917968C107.7924453125,-0.2009907434082031,110.1918253125,-0.2009907434082031,111.9927353125,1.0600482565917968C113.9232453125,2.478029256591797,115.0209453125,4.7605592565917965,114.92984531249999,7.1504792565917965L114.92984531249999,48.585769256591796C115.0429453125,50.4002692565918,114.4610453125,52.189969256591795,113.30274531250001,53.5941692565918C112.2547253125,54.871669256591794,110.6551453125,55.576569256591796,109.00040531249999,55.4856692565918Z" fill="#999999" fill-opacity="1"/></g></g><g clipPath="url(#master_svg2_4189_3163)"><g><path d="M138.361,62.72706165771484C135.099,60.904361657714844,133.841,56.84586165771484,135.504,53.503261657714845L156.878,19.251491657714844C159.175,16.156716657714842,163.315,15.066385657714843,166.842,16.624786657714843C170.14,18.609961657714845,171.359,22.544511657714843,169.688,25.837531657714845L148.336,60.089361657714846C146.042,63.19236165771484,141.894,64.28816165771485,138.361,62.72706165771484ZM159.44,83.55616165771484C158.538,81.84366165771485,158.306,79.85846165771484,158.794,77.98616165771485C159.252,76.15516165771484,160.424,74.58026165771484,162.049,73.61106165771484L196.051,52.29726165771484C199.327,50.614961657714844,203.246,51.845761657714846,205.213,55.138761657714845C206.117,56.82936165771484,206.343,58.836561657714846,205.844,60.72256165771484C205.389,62.55086165771485,204.223,64.12576165771485,202.604,65.09766165771484L168.59,86.40866165771484C165.314,88.07726165771484,161.406,86.86026165771484,159.44,83.56726165771484L159.44,83.55616165771484ZM221.942,108.89816165771484C222.039,110.55286165771484,221.338,112.15256165771484,220.056,113.20436165771484C218.652,114.37456165771485,216.854,114.96376165771484,215.028,114.85086165771484L173.527,114.85086165771484C171.133,114.94456165771484,168.847,113.84596165771484,167.427,111.91856165771485C166.158,110.11786165771484,166.158,107.71696165771485,167.427,105.91896165771485C168.847,103.99166165771484,171.133,102.89586165771485,173.527,102.98666165771485L215.031,102.98666165771485C216.846,102.87926165771485,218.635,103.46306165771485,220.034,104.62216165771484C221.322,105.66296165771485,222.036,107.25436165771484,221.956,108.90636165771484L221.942,108.89816165771484ZM205.417,162.71576165771484C203.58,165.96376165771485,199.515,167.21476165771483,196.164,165.55676165771484L161.823,144.24276165771485C158.662,142.05176165771485,157.625,137.85276165771484,159.404,134.44376165771484C161.177,131.01576165771485,165.165,129.70776165771485,168.419,131.47876165771484L202.761,152.76976165771484C205.869,155.05576165771484,206.972,159.18776165771484,205.417,162.71576165771484ZM166.93,200.96776165771485C163.659,202.77676165771484,159.556,201.92876165771483,157.272,198.97176165771484L135.89,164.87976165771485C134.886,163.37576165771483,134.536,161.52876165771485,134.925,159.76376165771484C135.314,157.99876165771485,136.403,156.46476165771483,137.945,155.52076165771484C141.18,153.48876165771483,145.443,154.37276165771485,147.603,157.51676165771485L168.999,191.61976165771483C170.218,193.04376165771484,170.698,194.95476165771484,170.298,196.78576165771486C169.876,198.62176165771484,168.635,200.16376165771484,166.93,200.96776165771485ZM109.001,217.72776165771484C107.346,217.81876165771484,105.746,217.11376165771483,104.695,215.83276165771485C103.532,214.43176165771484,102.947,212.64176165771485,103.057,210.82476165771484L103.057,169.38076165771486C102.966,166.99176165771485,104.067,164.70876165771483,105.994,163.29076165771485C107.793,162.02976165771486,110.192,162.02976165771486,111.993,163.29076165771485C113.923,164.70876165771483,115.021,166.99176165771485,114.93,169.38076165771486L114.93,210.81376165771485C115.043,212.62776165771484,114.461,214.41776165771483,113.303,215.82176165771483C112.252,217.10276165771484,110.653,217.80776165771485,108.998,217.71676165771484L108.998,217.72776165771484L109.001,217.72776165771484ZM55.1056,201.22976165771485C51.8568,199.39576165771484,50.613,195.33976165771483,52.2815,192.00276165771484L73.6304,157.75376165771485C75.925,154.65576165771483,80.0619,153.55776165771485,83.5947,155.11276165771486C86.9042,157.09876165771485,88.1149,161.03276165771484,86.4519,164.33976165771483L65.0671,198.58876165771485C62.7726,201.68076165771484,58.6385,202.77676165771484,55.1056,201.22976165771485ZM16.746,162.71576165771484C15.8414,161.00276165771484,15.6152,159.01476165771484,16.1117,157.14476165771484C16.575,155.31476165771485,17.7526,153.74476165771483,19.377,152.78076165771483L53.5695,131.47876165771484C56.8238,129.70776165771485,60.7979,131.01576165771485,62.563,134.44376165771484C64.3474,137.85276165771484,63.3159,142.05376165771486,60.1553,144.25676165771483L25.9518,165.54576165771485C22.6148,167.19776165771484,18.5662,165.94776165771484,16.746,162.70176165771485L16.746,162.71576165771484ZM55.4779,108.89816165771484C55.5717,110.55566165771485,54.8684,112.15536165771485,53.5805,113.20436165771484C52.1767,114.37456165771485,50.3786,114.96376165771484,48.5528,114.85086165771484L7.05195,114.85086165771484C4.65809,114.94456165771484,2.37455,113.84596165771484,0.951476,111.91856165771485C-0.317159,110.11786165771484,-0.317159,107.71696165771485,0.951476,105.91896165771485C2.37179,103.99166165771484,4.65534,102.89586165771485,7.05195,102.98666165771485L48.5556,102.98666165771485C50.3703,102.87926165771485,52.1602,103.46306165771485,53.5584,104.62216165771484C54.8464,105.66296165771485,55.5579,107.25436165771484,55.4779,108.90636165771484L55.4779,108.89816165771484ZM62.7202,83.55616165771484C60.8972,86.81346165771484,56.8376,88.06896165771484,53.4895,86.40866165771484L19.184,65.07016165771483C16.0786,62.779361657714844,14.9809,58.649261657714845,16.5391,55.125061657714845C18.3731,51.87606165771484,22.4355,50.63156165771484,25.7781,52.294561657714844L60.0754,73.60836165771485C63.1835,75.89916165771484,64.2839,80.04016165771485,62.7202,83.56726165771484L62.7202,83.55616165771484ZM83.9229,62.46826165771484C80.6107,64.27996165771484,76.4683,63.43186165771484,74.1406,60.46106165771484L52.4746,26.24226165771484C51.5176,24.664591657714844,51.2721,22.756511657714846,51.7961,20.986111657714844C52.3422,19.199181657714846,53.5943,17.712361657714844,55.2656,16.869834657714843C58.3517,15.060877657714844,62.3148,15.936446057714845,64.3474,18.877031657714845L86.0245,53.082061657714846C88.1149,56.441161657714844,87.4034,61.121861657714845,83.9229,62.47646165771484L83.9229,62.46826165771484Z" fill="#CCCCCC" fill-opacity="1"/></g></g></g></g></g></svg>