<svg xmlns="http://www.w3.org/2000/svg" xmlns:xlink="http://www.w3.org/1999/xlink" fill="none" version="1.1" width="529" height="529" viewBox="0 0 529 529"><defs><filter id="master_svg0_231_17975" filterUnits="objectBoundingBox" color-interpolation-filters="sRGB" x="-100" y="-70" width="529" height="529"><feFlood flood-opacity="0" result="BackgroundImageFix"/><feColorMatrix in="SourceAlpha" type="matrix" values="0 0 0 0 0 0 0 0 0 0 0 0 0 0 0 0 0 0 127 0"/><feOffset dy="50" dx="20"/><feGaussianBlur stdDeviation="30"/><feColorMatrix type="matrix" values="0 0 0 0 0.003921568859368563 0 0 0 0 0.11372549086809158 0 0 0 0 0.3529411852359772 0 0 0 0.45098039507865906 0"/><feBlend mode="normal" in2="BackgroundImageFix" result="effect1_dropShadow"/><feBlend mode="normal" in="SourceGraphic" in2="effect1_dropShadow" result="shape"/></filter><linearGradient x1="0.5" y1="0" x2="0.5" y2="1" id="master_svg1_194_00637"><stop offset="0%" stop-color="#C361FF" stop-opacity="1"/><stop offset="100%" stop-color="#7164FF" stop-opacity="1"/></linearGradient></defs><g style="mix-blend-mode:passthrough"><g style="mix-blend-mode:passthrough" filter="url(#master_svg0_231_17975)"><g><path d="M244.5,70C164.824,70,100,134.824,100,214.5C100,294.176,164.824,359,244.5,359C324.176,359,389,294.176,389,214.5C389,134.824,324.176,70,244.5,70Z" fill="url(#master_svg1_194_00637)" fill-opacity="1"/></g><g style="mix-blend-mode:passthrough"><path d="M329.7108716430664,187.4153199951172C332.4378716430664,184.66771999511718,333.9678716430664,180.95351999511718,333.9678716430664,177.0824199951172C333.9678716430664,168.9810799951172,327.3998716430664,162.4136199951172,319.2988716430664,162.4136199951172C315.3888716430664,162.4136199951172,311.6408716430664,163.9744299951172,308.8868716430664,166.7495299951172L308.88087164306637,166.75589999511718L223.17867164306642,253.1123199951172L182.9831716430664,212.91681999511718C180.2321716430664,210.16591999511718,176.5010716430664,208.62041999511717,172.6106716430664,208.62041999511717C164.50933164306642,208.62041999511717,157.9418716430664,215.18791999511717,157.9418716430664,223.28921999511718C157.9418716430664,227.17971999511718,159.4873316430664,230.91071999511718,162.2382716430664,233.66171999511718L210.76337164306642,282.1866199951172Q213.2952716430664,284.7186199951172,216.6101716430664,286.05861999511717Q219.80027164306642,287.3486199951172,223.24367164306642,287.34261999511716Q226.6871716430664,287.3356199951172,229.87227164306643,286.0336199951172Q233.18207164306642,284.6806199951172,235.7043716430664,282.1396199951172L329.70487164306644,187.4217199951172L329.7108716430664,187.4153199951172Z" fill-rule="evenodd" fill="#FFFFFF" fill-opacity="1"/></g></g></g></svg>