<svg xmlns="http://www.w3.org/2000/svg" xmlns:xlink="http://www.w3.org/1999/xlink" fill="none" version="1.1" width="92" height="123.000244140625" viewBox="0 0 92 123.000244140625"><defs><linearGradient x1="0.08899267017841339" y1="0.2722504734992981" x2="0.8845241665840149" y2="1" id="master_svg0_240_09496"><stop offset="0%" stop-color="#9553C8" stop-opacity="1"/><stop offset="100%" stop-color="#3343D3" stop-opacity="1"/></linearGradient></defs><g style="mix-blend-mode:passthrough"><g style="mix-blend-mode:passthrough"><g><path d="M89,46.6352C89,22.6358,69.65,3,46,3C22.35,3,3,22.6358,3,46.6352C3,70.3228,34.9429,108.659,43.85,118.945C45.0786,120.192,47.2286,120.503,48.4572,118.945C57.0572,108.659,89,70.9462,89,46.6352ZM24.5,46.6352C24.5,34.4797,34.0214,24.8176,46,24.8176C57.9786,24.8176,67.5,34.4797,67.5,46.6352C67.5,58.7907,57.9786,68.4527,46,68.4527C34.0214,68.4527,24.5,58.7907,24.5,46.6352Z" fill="url(#master_svg0_240_09496)" fill-opacity="1"/><path d="M92,46.6351Q92,62.8317,74.9668,88.9253Q69.1579,97.8242,61.4914,107.668Q57.2707,113.087,51.2581,120.272Q50.9377,120.655,50.7821,120.841Q49.8776,121.97,48.5841,122.53Q47.3706,123.056,46.0154,122.994Q43.5142,122.878,41.7132,121.051L41.6454,120.982L41.5822,120.909Q36.4022,114.927,31.3497,108.491Q23.6041,98.6235,17.5786,89.4647Q0,62.745,0,46.6352Q0,37.1943,3.625692,28.5339Q7.12485,20.1758,13.4944,13.7121Q19.8685,7.24389,28.1162,3.688192Q36.6713,0,46,0Q55.3287,0,63.8838,3.688194Q72.1315,7.24389,78.5056,13.7121Q84.8752,20.1758,88.3743,28.5339Q92,37.1943,92,46.6351ZM48.4572,118.945C57.0572,108.659,89,70.9462,89,46.6352C89,22.6358,69.65,3,46,3C22.35,3,3,22.6358,3,46.6352C3,70.3228,34.9429,108.659,43.85,118.945C45.0786,120.192,47.2286,120.503,48.4572,118.945ZM24.5,46.6352C24.5,34.4797,34.0214,24.8176,46,24.8176C57.9786,24.8176,67.5,34.4797,67.5,46.6352C67.5,58.7907,57.9786,68.4527,46,68.4527C34.0214,68.4527,24.5,58.7907,24.5,46.6352ZM28.9478,39.243Q27.5,42.7495,27.5,46.6352Q27.5,50.5208,28.9478,54.0273Q30.3435,57.4075,32.8949,59.9966Q35.4416,62.581,38.761,63.9923Q42.1959,65.4527,46,65.4527Q49.8041,65.4527,53.239,63.9923Q56.5584,62.581,59.1051,59.9966Q61.6565,57.4075,63.0522,54.0273Q64.5,50.5208,64.5,46.6352Q64.5,42.7495,63.0522,39.243Q61.6565,35.8628,59.1051,33.2738Q56.5584,30.6894,53.239,29.278Q49.8041,27.8176,46,27.8176Q42.1959,27.8176,38.761,29.278Q35.4416,30.6894,32.8949,33.2738Q30.3435,35.8628,28.9478,39.243Z" fill-rule="evenodd" fill="#7F91CB" fill-opacity="1"/></g><g style="mix-blend-mode:passthrough"><ellipse cx="46" cy="44" rx="30" ry="30" fill="#FFFFFF" fill-opacity="1"/></g></g><g style="mix-blend-mode:passthrough"><path d="M45.95312,54.3027Q44.99609,54.3027,44.04883,54.224599999999995Q43.10156,54.1465,42.27148,54.0293Q41.45117,53.912099999999995,40.80664,53.775400000000005Q40.16211,53.6387,39.77148,53.4922L39.77148,51.001999999999995Q40.2207,51.1777,40.9043,51.3438Q41.59766,51.5098,42.4082,51.6465Q43.21875,51.7832,44.11719,51.8613Q45.02539,51.9297,45.95312,51.9297Q48.2969,51.9297,49.4883,51.148399999999995Q50.6895,50.3672,50.6895,48.4238Q50.6895,47.457,50.4941,46.8125Q50.2988,46.168,49.7617,45.7188Q49.2246,45.2695,48.2871,44.9375Q47.35938,44.6055,45.89453,44.2539Q44.30273,43.8633,43.18945,43.4434Q42.08594,43.0234,41.39258,42.3789Q40.69922,41.7344,40.38672,40.8066Q40.07422,39.8691,40.07422,38.4922Q40.07422,35.64062,41.76367,34.24414Q43.46289,32.84766,46.99805,32.84766Q47.75,32.84766,48.5117,32.91602Q49.2832,32.97461,49.9863,33.08203Q50.6895,33.17969,51.2754,33.31641Q51.8613,33.45312,52.2227,33.59961L52.2227,36.06055Q51.3242,35.72852,49.8789,35.47461Q48.4434,35.2207,47.03711,35.2207Q45.95312,35.2207,45.14258,35.35742Q44.33203,35.49414,43.78516,35.85547Q43.24805,36.20703,42.99414,36.8418Q42.74023,37.4668,42.74023,38.4922Q42.74023,39.2148,42.87695,39.7422Q43.01367,40.2598,43.46289,40.6504Q43.91211,41.041,44.75195,41.3535Q45.5918,41.666,46.99805,41.998Q48.7461,42.418,49.957,42.8867Q51.168,43.3457,51.9199,44.0684Q52.6719,44.791,53.0039,45.8262Q53.3359,46.8613,53.3359,48.3945Q53.3359,51.4512,51.4609,52.876999999999995Q49.5859,54.3027,45.95312,54.3027Z" fill="#1E44AC" fill-opacity="1"/></g></g></svg>