<svg xmlns="http://www.w3.org/2000/svg" xmlns:xlink="http://www.w3.org/1999/xlink" fill="none" version="1.1" width="37.3251953125" height="40.75" viewBox="0 0 37.3251953125 40.75"><g style="mix-blend-mode:passthrough"><g style="mix-blend-mode:passthrough"><g style="opacity:0;mix-blend-mode:passthrough"><rect x="0" y="0" width="35.98130416870117" height="35.680850982666016" rx="0" fill="#000000" fill-opacity="1"/></g><g style="mix-blend-mode:passthrough"><path d="M16.605107286071778,34.562861810684204C13.347857286071777,31.168961810684205,7.511907286071777,23.083461810684206,5.849337286071777,19.689561810684204C4.899297286071778,17.693061810684203,4.797507286071777,17.193961810684204,4.797507286071777,14.166061810684203C4.797507286071777,11.237961810684205,4.899297286071778,10.605811810684203,5.713616286071777,8.908851810684205C7.002957286071777,6.246961810684204,9.683427286071776,3.5850618106842043,12.397827286071777,2.254121810684204C14.467547286071778,1.2559091106842042,14.840807286071778,1.189361810684204,18.199807286071778,1.189361810684204C21.32140728607178,1.189361810684204,22.000007286071778,1.289182810684204,23.628607286071777,2.054476810684204C29.770007286071777,4.8827418106842035,33.09510728607178,11.703861810684204,31.29680728607178,17.792961810684204C30.312807286071777,21.053761810684204,19.794607286071777,35.5610618106842,18.335607286071777,35.594361810684205C17.962307286071777,35.627561810684206,17.181907286071777,35.12846181068421,16.605107286071778,34.562861810684204Z" fill="#FFFFFF" fill-opacity="1"/></g><g style="mix-blend-mode:passthrough" transform="matrix(1,0,0,-1,0,36.510643005371094)"><path d="M22.090643749999998,29.802121502685544C24.94304375,28.219771502685546,26.00114375,24.071481502685547,24.25294375,21.334461502685546C23.24084375,19.709361502685546,20.48049375,18.255321502685547,18.54825375,18.255321502685547C16.155953750000002,18.255321502685547,13.25760375,20.051491502685547,12.38349575,22.104251502685546C11.46338375,24.285311502685545,11.46338375,24.884031502685545,12.56751875,27.107861502685545C14.17771375,30.443621502685545,18.73227375,31.726621502685546,22.090643749999998,29.802121502685544Z" fill="#4558A4" fill-opacity="1"/></g></g><g style="mix-blend-mode:passthrough"><path d="M0.9573420606460572,36.09760745666504L6.990698060646057,29.799733456665038Q7.802708060646057,28.95212745666504,8.976498060646056,28.95212745666504L34.57140806064606,28.95212745666504Q35.450008060646056,28.95212745666504,36.157008060646056,29.451597456665038Q36.808108060646056,29.911568456665037,37.11430806064606,30.65507685666504Q37.420408060646054,31.39857945666504,37.282008060646056,32.18364745666504Q37.13160806064606,33.03614745666504,36.507808060646056,33.65480745666504L30.156908060646057,39.95267745666504Q29.35280806064606,40.75002745666504,28.220508060646058,40.75002745666504L2.9431380606460573,40.75002745666504Q2.075708060646057,40.75002745666504,1.3737270606460572,40.26162745666504Q0.7261520606460572,39.81110745666504,0.4139040606460571,39.07956745666504Q0.10165706064605712,38.34801745666504,0.22431006064605713,37.56873745666504Q0.3572670606460571,36.72398745666504,0.9573420606460572,36.09760745666504L0.9573420606460572,36.09760745666504ZM3.484718060646057,38.51883745666504Q3.827388060646057,38.16114745666504,3.6329280606460572,37.70557745666504Q3.438478060646057,37.24999745666504,2.9431380606460573,37.24999745666504L28.220508060646058,37.24999745666504Q27.911708060646056,37.24999745666504,27.692408060646056,37.46744745666504L34.043308060646055,31.16957845666504Q33.68660806064606,31.52324645666504,33.87790806064606,31.98768745666504Q34.06910806064606,32.45212745666504,34.57140806064606,32.45212745666504L8.976498060646056,32.45212745666504Q9.296628060646057,32.45212745666504,9.518078060646058,32.22095745666504L3.484718060646057,38.51883745666504L3.484718060646057,38.51883745666504Z" fill="#FFFFFF" fill-opacity="1"/></g></g></svg>