<svg xmlns="http://www.w3.org/2000/svg" xmlns:xlink="http://www.w3.org/1999/xlink" fill="none" version="1.1" width="64" height="64" viewBox="0 0 64 64"><defs><clipPath id="master_svg0_231_04416"><rect x="0" y="0" width="64" height="64" rx="0"/></clipPath></defs><g clip-path="url(#master_svg0_231_04416)"><g><path d="M49.03,13.21648L15.321950000000001,13.21648C14.740739999999999,13.21648,14.24511,13.422270000000001,13.83168,13.83447C13.42165,14.24635,13.21432,14.74197,13.21432,15.32133L13.21432,49.0337C13.21432,49.6131,13.42135,50.1087,13.83168,50.5206C14.24511,50.9325,14.740739999999999,51.1386,15.321950000000001,51.1386L49.0303,51.1386C49.6125,51.1386,50.1093,50.9325,50.5197,50.5206C50.9328,50.1087,51.1386,49.6128,51.1386,49.0334L51.1386,15.32164C51.1386,14.742280000000001,50.9328,14.24666,50.5194,13.834769999999999C50.1093,13.42258,49.6125,13.21679,49.0303,13.21679L49.03,13.21648ZM15.3204,9L49.0288,9C50.7721,9,52.263,9.617981,53.4977,10.85394C54.7318,12.08991,55.3486,13.577079999999999,55.3486,15.32133L55.3486,49.0272C55.3486,50.7715,54.7318,52.2652,53.4977,53.4946C52.263,54.7306,50.7721,55.3486,49.0288,55.3486L15.3204,55.3486C13.57584,55.3486,12.0862,54.7306,10.85209,53.4946C9.617363,52.2649,9,50.7715,9,49.0272L9,15.32133C9,13.577079999999999,9.617363,12.08991,10.85209,10.85394C12.0862,9.617981,13.57584,9,15.3204,9Z" fill="#FFFFFF" fill-opacity="1"/></g><g style="mix-blend-mode:passthrough"><rect x="22" y="30" width="21" height="5" rx="2.5" fill="#FFFFFF" fill-opacity="1"/></g></g></svg>
