<svg xmlns="http://www.w3.org/2000/svg" xmlns:xlink="http://www.w3.org/1999/xlink" fill="none" version="1.1" width="310" height="317" viewBox="0 0 310 317"><defs><clipPath id="master_svg0_19_069"><rect x="0" y="0" width="310" height="317" rx="0"/></clipPath><clipPath id="master_svg1_19_085"><rect x="9" y="9" width="294" height="285" rx="0"/></clipPath><filter id="master_svg2_1_332" filterUnits="objectBoundingBox" color-interpolation-filters="sRGB" x="-100" y="-70" width="376" height="376"><feFlood flood-opacity="0" result="BackgroundImageFix"/><feColorMatrix in="SourceAlpha" type="matrix" values="0 0 0 0 0 0 0 0 0 0 0 0 0 0 0 0 0 0 127 0"/><feOffset dy="50" dx="20"/><feGaussianBlur stdDeviation="30"/><feColorMatrix type="matrix" values="0 0 0 0 0.003921568859368563 0 0 0 0 0.11372549086809158 0 0 0 0 0.3529411852359772 0 0 0 0.45098039507865906 0"/><feBlend mode="normal" in2="BackgroundImageFix" result="effect1_dropShadow"/><feBlend mode="normal" in="SourceGraphic" in2="effect1_dropShadow" result="shape"/></filter><linearGradient x1="0.5" y1="0" x2="0.5" y2="1" id="master_svg3_1_149"><stop offset="0%" stop-color="#C361FF" stop-opacity="1"/><stop offset="100%" stop-color="#7164FF" stop-opacity="1"/></linearGradient></defs><g clip-path="url(#master_svg0_19_069)"><g clip-path="url(#master_svg1_19_085)"><g filter="url(#master_svg2_1_332)"><g><path d="M199.714,189.286C202.397,189.286,204.571,191.46,204.571,194.143C204.571,196.825,202.397,199,199.714,199L112.28569999999999,199C109.6032,199,107.4286,196.825,107.4286,194.143C107.4286,191.46,109.6032,189.286,112.28569999999999,189.286L199.714,189.286ZM209.429,63C217.476,63,224,69.52375,224,77.5714L224,165C224,173.048,217.476,179.571,209.429,179.571L102.5714,179.571C94.52375,179.571,88,173.048,88,165L88,77.5714C88,69.52375,94.52375,63,102.5714,63L209.429,63ZM201.166,108.65C199.591,106.5569,196.637,106.0906,194.494,107.5971L194.429,107.64320000000001L171.6617,124.2011C170.8823,124.7679,169.8414,124.8203,169.0091,124.33449999999999L168.9605,124.3053L144.4143,109.20009999999999C140.9981,107.0978,136.6455,107.3134,133.4554,109.7313L133.3592,109.80539999999999L114.1609,124.7375L114.0979,124.7873C112.0567,126.42869999999999,111.6857,129.397,113.26050000000001,131.4903L113.3089,131.5534L113.3587,131.6164C115.0001,133.6576,117.9684,134.02859999999998,120.0617,132.4538L120.1248,132.4054L137.99349999999998,118.50739999999999C138.7769,117.8981,139.8522,117.82679999999999,140.70929999999998,118.32730000000001L140.7574,118.3561L165.2548,133.4315C168.5745,135.4743,172.7901,135.3333,175.9638,133.0833L176.05970000000002,133.0144L200.142,115.4996L200.207,115.45179999999999C202.3,113.8771,202.76600000000002,110.9222,201.26,108.7793L201.214,108.7147L201.166,108.65Z" fill="url(#master_svg3_1_149)" fill-opacity="1"/></g><g><path d="M173.5691579711914,135.40503157958983L200.3806579711914,115.97649157958985C201.7926579711914,114.95330157958985,202.6285579711914,113.31522157958985,202.6285579711914,111.57145157958985C202.6285579711914,108.56703157958984,200.19305797119142,106.13145603728984,197.18855797119141,106.13145603728984C196.0420579711914,106.13145603728984,194.9248579711914,106.49368257958984,193.9965579711914,107.16642157958984L170.1174579711914,124.47013157958985L141.3463579711914,106.92680457958984C139.3928579711914,105.73559757958985,136.90265797119142,105.89415957958984,135.1159579711914,107.32353157958984L113.7445179711914,124.42063157958984C112.45406597119141,125.45303157958985,111.7028579711914,127.01603157958985,111.7028579711914,128.66863157958983C111.7028579711914,131.67303157958983,114.1384279711914,134.10863157958985,117.1428579711914,134.10863157958985C118.3781279711914,134.10863157958985,119.57661797119141,133.68823157958985,120.54119797119141,132.91653157958984L138.9363579711914,118.20033157958984L167.5450579711914,135.64463157958986C169.4177579711914,136.78663157958985,171.79305797119142,136.69213157958984,173.5691579711914,135.40503157958983Z" fill-rule="evenodd" fill="#FFFFFF" fill-opacity="1"/></g></g></g></g></svg>