<svg xmlns="http://www.w3.org/2000/svg" xmlns:xlink="http://www.w3.org/1999/xlink" fill="none" version="1.1" width="371.601806640625" height="368.404296875" viewBox="0 0 371.601806640625 368.404296875"><defs><filter id="master_svg0_219_11002" filterUnits="objectBoundingBox" color-interpolation-filters="sRGB" x="-100" y="-70" width="371.601806640625" height="368.40380859375"><feFlood flood-opacity="0" result="BackgroundImageFix"/><feColorMatrix in="SourceAlpha" type="matrix" values="0 0 0 0 0 0 0 0 0 0 0 0 0 0 0 0 0 0 127 0"/><feOffset dy="50" dx="20"/><feGaussianBlur stdDeviation="30"/><feColorMatrix type="matrix" values="0 0 0 0 0.003921568859368563 0 0 0 0 0.11372549086809158 0 0 0 0 0.3529411852359772 0 0 0 0.45098039507865906 0"/><feBlend mode="normal" in2="BackgroundImageFix" result="effect1_dropShadow"/><feBlend mode="normal" in="SourceGraphic" in2="effect1_dropShadow" result="shape"/></filter><linearGradient x1="0.5" y1="-0.2466588020324707" x2="0.5609154105186462" y2="0.7214112877845764" id="master_svg1_0_3080"><stop offset="0.08604676695540547%" stop-color="#EE60FF" stop-opacity="1"/><stop offset="100%" stop-color="#6964FF" stop-opacity="1"/></linearGradient></defs><g style="mix-blend-mode:passthrough"><g style="opacity:0;mix-blend-mode:passthrough"><rect x="83.5999755859375" y="53.599609375" width="164" height="164" rx="0" fill="#000000" fill-opacity="1"/></g><g style="mix-blend-mode:passthrough" filter="url(#master_svg0_219_11002)"><path d="M225.24697329711915,186.13660708618164L215.16897329711912,186.13660708618164L215.16897329711912,84.25940708618164C215.16897329711912,76.38740708618164,208.55197329711916,69.99960708618164,200.39297329711914,69.99960708618164L131.21737329711914,69.99960708618164C123.05837329711915,69.99960708618164,116.44097329711914,76.38740708618164,116.44097329711914,84.25940708618164L116.44097329711914,186.13660708618164L106.35497329711914,186.13660708618164C102.84537329711914,186.13660708618164,99.99997329711914,188.88360708618166,99.99997329711914,192.26960708618162C99.99997329711914,195.65660708618162,102.84537329711914,198.40360708618164,106.35497329711914,198.40360708618164L225.24697329711915,198.40360708618164C228.75597329711914,198.40360708618164,231.60197329711914,195.65660708618162,231.60197329711914,192.26960708618162C231.60197329711914,188.88360708618166,228.75597329711914,186.13660708618164,225.24697329711915,186.13660708618164Z" fill="url(#master_svg1_0_3080)" fill-opacity="1"/></g><g style="mix-blend-mode:passthrough"><path d="M155.53857345581054,97.0022087097168L175.56297345581055,97.0022087097168C180.09167345581056,97.0022087097168,183.76297345581054,100.6734687097168,183.76297345581054,105.2022087097168C183.76297345581054,109.7309087097168,180.09167345581056,113.4022087097168,175.56297345581055,113.4022087097168L155.53857345581054,113.4022087097168C151.00983345581054,113.4022087097168,147.33857345581055,109.7309087097168,147.33857345581055,105.2022087097168C147.33857345581055,100.6734687097168,151.00983345581054,97.0022087097168,155.53857345581054,97.0022087097168" fill="#FFFFFF" fill-opacity="1"/></g><g style="mix-blend-mode:passthrough"><path d="M178.58878216552733,143.1190210083008C181.15538216552733,143.1190210083008,183.46778216552735,144.6114210083008,184.45998216552735,146.89922100830077C185.44398216552736,149.18702100830077,184.91098216552734,151.8192210083008,183.09878216552735,153.5822210083008L159.10558216552735,176.84562100830078C157.86738216552735,178.05102100830078,156.23558216552735,178.64962100830078,154.60377216552735,178.64962100830078C152.93414216552733,178.6540210083008,151.32727216552735,178.0136210083008,150.11837216552735,176.8620210083008C147.63377216552735,174.47582100830078,147.61737216552734,170.5890210083008,150.09377216552735,168.18642100830078L163.29578216552733,155.37802100830078L152.51277216552734,155.37802100830078C149.98717216552734,155.37802100830078,147.70757216552735,153.9348210083008,146.69077516552736,151.71262100830077C145.67397516552734,149.48222100830077,146.12497526552735,146.88282100830077,147.83057216552734,145.09522100830077L162.54958216552734,129.6628110083008C164.92758216552735,127.17001000830078,168.94558216552736,127.00601000830078,171.52858216552735,129.30201100830078C174.11158216552735,131.59801100830077,174.27558216552734,135.47661100830078,171.89758216552735,137.96942100830077L166.98578216552735,143.1190210083008L178.58878216552733,143.1190210083008L178.58878216552733,143.1190210083008Z" fill="#FFFFFF" fill-opacity="1"/></g></g></svg>