<svg xmlns="http://www.w3.org/2000/svg" xmlns:xlink="http://www.w3.org/1999/xlink" fill="none" version="1.1" width="381" height="382" viewBox="0 0 381 382"><defs><filter id="master_svg0_229_03860" filterUnits="objectBoundingBox" color-interpolation-filters="sRGB" x="-100" y="-70" width="381.00001525878906" height="382"><feFlood flood-opacity="0" result="BackgroundImageFix"/><feColorMatrix in="SourceAlpha" type="matrix" values="0 0 0 0 0 0 0 0 0 0 0 0 0 0 0 0 0 0 127 0"/><feOffset dy="50" dx="20"/><feGaussianBlur stdDeviation="30"/><feColorMatrix type="matrix" values="0 0 0 0 0.003921568859368563 0 0 0 0 0.11372549086809158 0 0 0 0 0.3529411852359772 0 0 0 0.45098039507865906 0"/><feBlend mode="normal" in2="BackgroundImageFix" result="effect1_dropShadow"/><feBlend mode="normal" in="SourceGraphic" in2="effect1_dropShadow" result="shape"/></filter><linearGradient x1="0.5" y1="0" x2="0.5" y2="1" id="master_svg1_194_00637"><stop offset="0%" stop-color="#C361FF" stop-opacity="1"/><stop offset="100%" stop-color="#7164FF" stop-opacity="1"/></linearGradient><linearGradient x1="0.5" y1="0" x2="0.5" y2="1" id="master_svg2_194_00637"><stop offset="0%" stop-color="#C361FF" stop-opacity="1"/><stop offset="100%" stop-color="#7164FF" stop-opacity="1"/></linearGradient><linearGradient x1="0.5" y1="0" x2="0.5" y2="1" id="master_svg3_194_00637"><stop offset="0%" stop-color="#C361FF" stop-opacity="1"/><stop offset="100%" stop-color="#7164FF" stop-opacity="1"/></linearGradient><linearGradient x1="0.5" y1="0" x2="0.5" y2="1" id="master_svg4_194_00637"><stop offset="0%" stop-color="#C361FF" stop-opacity="1"/><stop offset="100%" stop-color="#7164FF" stop-opacity="1"/></linearGradient></defs><g style="mix-blend-mode:passthrough" filter="url(#master_svg0_229_03860)"><g><path d="M135.5522,105.50008810119628L105.92536,105.50008810119628C102.37015,105.50008810119628,100,103.1334481011963,100,99.5834481011963C100,96.03344810119629,102.37015,93.66678810119629,105.92536,93.66678810119629L135.5522,93.66678810119629C139.10739999999998,93.66678810119629,141.4775,96.03344810119629,141.4775,99.5834481011963C141.4775,103.1334481011963,139.10739999999998,105.50008810119628,135.5522,105.50008810119628ZM135.5522,146.91668810119629L105.92536,146.91668810119629C102.37015,146.91668810119629,100,144.55008810119628,100,141.0000881011963C100,137.4500881011963,102.37015,135.0833881011963,105.92536,135.0833881011963L135.5522,135.0833881011963C139.10739999999998,135.0833881011963,141.4775,137.4500881011963,141.4775,141.0000881011963C141.4775,144.55008810119628,139.10739999999998,146.91668810119629,135.5522,146.91668810119629ZM135.5522,188.3333881011963L105.92536,188.3333881011963C102.37015,188.3333881011963,100,185.96668810119627,100,182.41668810119629C100,178.8666881011963,102.37015,176.5000881011963,105.92536,176.5000881011963L135.5522,176.5000881011963C139.10739999999998,176.5000881011963,141.4775,178.8666881011963,141.4775,182.41668810119629C141.4775,185.96668810119627,139.10739999999998,188.3333881011963,135.5522,188.3333881011963ZM233.913,211.9997881011963C232.136,211.9997881011963,229.765,210.8167881011963,228.58,209.0417881011963L210.804,179.4583881011963C210.212,178.8666881011963,210.212,178.2749881011963,209.619,177.68338810119627L187.1028,159.34168810119627C184.7327,156.9750881011963,186.62990000000002,152.83328810119627,189,150.4665881011963C191.3702,148.09988810119629,192.4357,148.1000881011963,194.8058,150.4666881011963L217.322,168.80838810119627C219.1,169.9916881011963,220.285,171.76668810119628,221.47,173.54168810119629L239.246,203.1247881011963C241.024,206.0837881011963,239.839,209.63378810119627,237.468,211.4087881011963C235.691,211.9997881011963,235.098,211.9997881011963,233.913,211.9997881011963Z" fill="url(#master_svg1_194_00637)" fill-opacity="1"/></g><g style="mix-blend-mode:passthrough"><ellipse cx="204.1783447265625" cy="90.67086791992188" rx="20.656051635742188" ry="20.670867919921875" fill="url(#master_svg2_194_00637)" fill-opacity="1"/></g><g><path d="M165.46257763427735,211.99982953491212C164.28019763427736,211.99982953491212,163.09781763427733,211.4080295349121,161.91543763427734,210.8162295349121C158.95947963427736,209.0407295349121,158.36828663427735,205.4898295349121,160.73305763427734,202.5307295349121L179.65118763427733,175.30692953491211C180.24238763427735,174.1232295349121,180.83358763427734,173.5314295349121,180.83358763427734,172.93962953491211L194.43098763427736,118.49195953491211C195.02208763427734,115.5328495349121,198.56928763427734,113.16555753491211,201.52528763427733,114.34920253491211C204.48118763427735,114.9410235349121,206.84598763427735,118.49195953491211,205.66358763427735,121.45106953491211L192.06618763427736,175.8987295349121C191.47498763427734,178.2660295349121,190.29258763427734,180.63322953491212,188.51898763427735,182.4087295349121L170.19208763427736,209.0407295349121C169.00971763427734,211.4080295349121,167.23614763427733,211.99982953491212,165.46257763427735,211.99982953491212Z" fill="url(#master_svg3_194_00637)" fill-opacity="1"/></g><g><path d="M159.3244227258301,153.5822295349121C158.1385227258301,153.5822295349121,156.95262272583008,153.0006295349121,155.76672272583008,152.41912953491212C152.80196772583008,150.6745295349121,152.2090147258301,147.1853295349121,153.98786272583007,144.2776295349121L167.62576272583007,123.92399953491211C169.99756272583008,120.43479953491212,172.96226272583007,118.1086595349121,176.51996272583008,116.9455995349121C180.67066272583008,115.78252953491211,187.78606272583008,114.03792953491211,196.68026272583006,114.03792953491211C205.57456272583008,114.03792953491211,212.68996272583007,115.78252953491211,216.84066272583007,116.9455995349121C220.39836272583008,118.1086595349121,223.36306272583008,120.43479953491212,225.73486272583008,123.34245953491211L239.96566272583007,142.53302953491212C241.74456272583006,144.85922953491212,241.15156272583008,148.9299295349121,238.7797627258301,150.6745295349121C236.4079627258301,152.41912953491212,232.2573627258301,151.8376295349121,230.47846272583007,149.5114295349121L216.24766272583008,130.32082953491212C215.65476272583007,129.1578295349121,214.4688627258301,128.5762295349121,213.87586272583007,128.5762295349121C210.31816272583006,127.4132295349121,204.9815627258301,126.2501295349121,197.27326272583008,126.2501295349121C189.56486272583007,126.2501295349121,183.63536272583008,127.4132295349121,180.07766272583007,128.5762295349121C178.89176272583006,129.1578295349121,178.29886272583008,129.73932953491212,177.11296272583007,130.9024295349121L163.47506272583007,151.2560295349121C162.88212272583007,152.41912953491212,161.10327272583007,153.5822295349121,159.3244227258301,153.5822295349121Z" fill="url(#master_svg4_194_00637)" fill-opacity="1"/></g><g style="mix-blend-mode:passthrough"><ellipse cx="204.5" cy="90.5" rx="11.5" ry="11.5" fill="#FFFFFF" fill-opacity="1"/></g></g></svg>