<svg xmlns="http://www.w3.org/2000/svg" xmlns:xlink="http://www.w3.org/1999/xlink" fill="none" version="1.1" width="63" height="75" viewBox="0 0 63 75"><g><path d="M37.1764,13.1791C37.1764,13.1791,37.1764,33.5199,37.1764,33.5199C37.1764,34.6841,36.2008,35.4693,35.0205,35.4693C33.6491,35.4693,32.6735,34.6841,32.6735,33.5199C32.6735,33.5199,32.6735,4.08168,32.6735,4.08168C32.6735,2.51128,31.8957,1.36056,30.5244,0.582131C29.7398,0.182763,29.1599,0,28.3684,0C28.3684,0,28.1706,0,28.1706,0C27.3928,0,26.6082,0.182763,26.0215,0.582131C24.6501,1.36056,23.8655,2.51128,23.8655,4.08168C23.8655,4.08168,23.8655,33.5199,23.8655,33.5199C23.8655,34.6841,22.692,35.4693,21.5253,35.4693C20.345,35.4693,19.3762,34.6841,19.3762,33.5199C19.3762,33.5199,19.3762,9.87591,19.3762,9.87591C19.3762,8.14305,17.616,6.59296,15.651,6.59296C13.5088,6.59296,11.9396,8.14305,11.9396,9.87591C11.9396,9.87591,11.9396,36.0514,11.9396,36.0514C11.9396,37.2157,10.9571,38.1634,9.58576,38.1634C8.40546,38.1634,7.43669,37.2157,7.43669,36.0514C7.43669,36.0514,7.43669,19.7721,7.43669,19.7721C7.43669,17.8362,5.87427,16.4756,3.7183,16.4756C3.7183,16.4756,3.7183,16.4756,3.7183,16.4756C2.73587,16.4756,1.76023,16.8547,1.18034,17.4436C0.395697,18.019,0,18.8042,0,19.7721C0,19.7721,0,55.4445,0,55.4445C1.18034,71.1417,11.1482,75,25.0458,75C34.8295,75,42.2593,69.7744,47.54,63.9531C49.8937,61.6449,55.7612,53.3123,59.6706,44.9662C60.8441,42.6309,61.2398,42.2653,62.0176,39.7338C62.6111,37.9874,63,36.0514,63,34.5014C63,32.755,61.4376,30.819,58.886,30.819C56.539,30.819,55.5634,34.5014,54.7788,36.0514C53.8031,38.3664,53.2096,39.5375,51.0672,43.4161C50.2895,44.7631,48.9113,45.5483,47.3557,45.5483C45.7865,45.5483,46.1686,44.9662,46.1686,42.2653C46.1686,42.2653,46.1686,13.1791,46.1686,13.1791C46.1686,11.8051,45.193,10.4783,43.8216,9.69313C42.4503,9.0907,40.6969,9.0907,39.3255,9.69313C37.9542,10.4783,37.1764,11.8051,37.1764,13.1791C37.1764,13.1791,37.1764,13.1791,37.1764,13.1791C37.1764,13.1791,37.1764,13.1791,37.1764,13.1791Z" fill="#FFFFFF" fill-opacity="1"/></g></svg>