<svg xmlns="http://www.w3.org/2000/svg" xmlns:xlink="http://www.w3.org/1999/xlink" fill="none" version="1.1" width="82.236328125" height="91.786376953125" viewBox="0 0 82.236328125 91.786376953125"><g transform="matrix(0.8831262588500977,0.46913543343544006,-0.5006815791130066,0.8656315803527832,4.6941404485551175,-18.84140297974227)"><path d="M67.098809375,0.00019264225L79.144609375,1.11961828125C84.431009375,1.61727828125,88.41950937499999,6.21610828125,87.725609375,11.32448828125L83.96150937499999,44.99318828125C83.977009375,45.39578828125,83.96410937499999,45.80318828125,83.921009375,46.21358828125L81.161209375,70.13588828125C80.628509375,75.14608828125,75.813309375,78.69908828125,70.519409375,78.20568828125L49.088789375,76.14188828125C44.363309375,75.68988828125,40.665087375,71.98278828125,40.311382375,67.63428828125L40.271320375,67.98098828125C39.721031375,72.99698828125,43.709519375,77.59588828125,48.990579374999996,78.09638828125L70.366009375,80.13668828125C72.490009375,80.33278828125,74.537809375,79.87258828125,76.262109375,78.92538828125C74.525609375,79.89468828125,72.455409375,80.36768828125,70.307009375,80.16928828125L48.931639375,78.12908828125C43.650579375,77.62848828125,39.662098375,73.02968828125,40.212381375,68.01368828125L40.291183375,67.30748828125C40.273489375,66.88928828125,40.286822375,66.46588828125,40.333202375,66.03948828125L43.076119375,42.11298828125C43.101449375,41.87998828125,43.136039375,41.65018828125,43.179519375,41.42368828125L46.249119375,13.91548828125L67.098809375,0.00019264225ZM53.431709375,36.82568828125L74.70170937500001,38.97728828125L74.85700937499999,38.89248828125C76.58270937500001,39.09838828125,78.342409375,40.01498828125,79.26340937500001,41.20708828125C80.423109375,42.45108828125,80.98600937500001,44.02768828125,80.868509375,45.79998828125L80.723909375,45.87888828125L78.114109375,69.71928828125C77.993509375,71.48658828125,77.073509375,72.92718828125,75.75520937499999,74.03148828125C74.34420937499999,74.98388828125,72.671109375,75.51898828125,70.81000937499999,75.40708828125L49.385609375,73.35338828125C47.665279375,73.14458828125,45.902459375,72.22288828125,44.895779375000004,70.90208828125C43.815589375,69.77668828125,43.166929375,68.07138828125,43.530269375,66.37418828125L46.133909375,42.52368828125C46.248289375,40.74628828125,47.166049375,39.31358828125,48.492759375,38.21148828125C49.894519375,37.24378828125,51.721509375,36.64508828125,53.431709375,36.82568828125Z" fill-rule="evenodd" fill="#FFFFFF" fill-opacity="1"/><path d="" fill="#000000" fill-opacity="0"/></g></svg>