<svg xmlns="http://www.w3.org/2000/svg" xmlns:xlink="http://www.w3.org/1999/xlink" fill="none" version="1.1" width="45.968170166015625" height="47.8193359375" viewBox="0 0 45.968170166015625 47.8193359375"><g style="mix-blend-mode:passthrough"><g><path d="M23.9327,6.152402877807617L6.28378,6.152402877807617Q5.55161,6.152402877807617,5.03059,6.678892877807617Q4.5,7.215052877807617,4.5,7.9781028778076175L4.5,41.493702877807614Q4.5,42.25670287780762,5.03059,42.79280287780762Q5.55161,43.319302877807615,6.28378,43.319302877807615L37.2152,43.319302877807615Q37.9477,43.319302877807615,38.4692,42.79260287780762Q39,42.256402877807616,39,41.493702877807614L39,20.578802877807618Q39,20.468302877807616,39.0108,20.358302877807617Q39.0217,20.248302877807618,39.0432,20.139802877807618Q39.0648,20.03140287780762,39.0969,19.925702877807616Q39.129,19.819902877807618,39.1713,19.717802877807618Q39.2136,19.615602877807618,39.2657,19.518202877807617Q39.3178,19.420702877807617,39.3792,19.328802877807618Q39.4406,19.236902877807616,39.5107,19.15140287780762Q39.5808,19.06600287780762,39.659,18.987802877807617Q39.7372,18.909602877807615,39.8226,18.839502877807618Q39.9081,18.769402877807618,40,18.708002877807616Q40.0919,18.646602877807616,40.1894,18.594502877807617Q40.2868,18.542402877807618,40.389,18.500102877807617Q40.4911,18.457802877807616,40.5969,18.425702877807616Q40.7026,18.393602877807616,40.811,18.372002877807617Q40.9195,18.350502877807617,41.0295,18.339602877807618Q41.1395,18.328802877807618,41.25,18.328802877807618Q41.3605,18.328802877807618,41.4705,18.339602877807618Q41.5805,18.350502877807617,41.6889,18.372002877807617Q41.7974,18.393602877807616,41.9031,18.425702877807616Q42.0089,18.457802877807616,42.111,18.500102877807617Q42.2132,18.542402877807618,42.3106,18.594502877807617Q42.4081,18.646602877807616,42.5,18.708002877807616Q42.5919,18.769402877807618,42.6774,18.839502877807618Q42.7628,18.909602877807615,42.841,18.987802877807617Q42.9191,19.06600287780762,42.9893,19.15140287780762Q43.0594,19.236902877807616,43.1208,19.328802877807618Q43.1822,19.420702877807617,43.2343,19.518202877807617Q43.2864,19.615602877807618,43.3287,19.717802877807618Q43.371,19.819902877807618,43.4031,19.925702877807616Q43.4352,20.03140287780762,43.4568,20.139802877807618Q43.4783,20.248302877807618,43.4892,20.358302877807617Q43.5,20.468302877807616,43.5,20.578802877807618L43.5,41.493702877807614Q43.5,44.107002877807616,41.6672,45.958402877807615Q39.825,47.819302877807615,37.2152,47.819302877807615L6.28378,47.819302877807615Q3.67387,47.819302877807615,1.832039,45.958202877807615Q0,44.10690287780762,0,41.493702877807614L0,7.9781028778076175Q0,5.364852877807618,1.832034,3.513574877807617Q3.67386,1.6524028778076172,6.28378,1.6524028778076172L23.9327,1.6524028778076172Q24.0432,1.6524028778076172,24.1532,1.663232877807617Q24.2632,1.674072877807617,24.3716,1.695632877807617Q24.48,1.7172028778076172,24.5858,1.7492828778076173Q24.6916,1.781372877807617,24.7937,1.823672877807617Q24.8958,1.865972877807617,24.9933,1.918082877807617Q25.0908,1.9701828778076171,25.1827,2.031592877807617Q25.2746,2.093002877807617,25.3601,2.163132877807617Q25.4455,2.233252877807617,25.5237,2.3114128778076175Q25.6018,2.389572877807617,25.6719,2.475022877807617Q25.7421,2.560462877807617,25.8035,2.6523728778076174Q25.8649,2.7442728778076173,25.917,2.841762877807617Q25.9691,2.939243877807617,26.0114,3.0413648778076174Q26.0537,3.143486877807617,26.0858,3.249262877807617Q26.1179,3.355037877807617,26.1394,3.463449877807617Q26.161,3.5718608778076173,26.1718,3.681863877807617Q26.1827,3.791867877807617,26.1827,3.9024028778076834Q26.1827,4.012937877807617,26.1718,4.122941877807617Q26.161,4.2329448778076175,26.1394,4.341355877807617Q26.1179,4.449767877807617,26.0858,4.555542877807618Q26.0537,4.661318877807617,26.0114,4.763440877807617Q25.9691,4.865561877807617,25.917,4.963042877807617Q25.8649,5.060532877807617,25.8035,5.152432877807617Q25.7421,5.244342877807617,25.6719,5.3297828778076175Q25.6018,5.415232877807617,25.5237,5.493392877807617Q25.4455,5.571552877807617,25.3601,5.6416728778076175Q25.2746,5.711802877807617,25.1827,5.773212877807618Q25.0908,5.834622877807617,24.9933,5.8867228778076175Q24.8958,5.938832877807617,24.7937,5.981132877807617Q24.6916,6.023432877807617,24.5858,6.055522877807617Q24.48,6.087602877807617,24.3716,6.109172877807618Q24.2632,6.130732877807617,24.1532,6.141572877807617Q24.0432,6.152402877807617,23.9327,6.152402877807617Z" fill="#FFFFFF" fill-opacity="1"/></g><g transform="matrix(-0.7165494561195374,0.697536289691925,-0.690279483795166,-0.7235428094863892,71.89037577963268,-26.068322781634606)"><line x1="41.24966812133789" y1="-0.6806640625" x2="72.7194766998291" y2="-0.6806640625" fill-opacity="0" stroke-opacity="1" stroke="#FFFFFF" fill="none" stroke-width="4.5" stroke-linecap="ROUND"/></g></g></svg>