<svg xmlns="http://www.w3.org/2000/svg" xmlns:xlink="http://www.w3.org/1999/xlink" fill="none" version="1.1" width="46.348575592041016" height="46.348575592041016" viewBox="0 0 46.348575592041016 46.348575592041016"><g><path d="M31.602,15.8552C32.173,15.8552,32.6668,16.061,33.0852,16.4732C33.5011,16.8851,33.7096,17.3807,33.7096,17.9601C33.7096,18.5394,33.5011,19.0415,33.0855,19.4599L22.6645,29.8757C22.2581,30.2811,21.7644,30.4872,21.1813,30.4872C20.588,30.4872,20.0906,30.2811,19.6845,29.8754L13.7254,23.9214C13.3215,23.5092,13.1176,23.0136,13.1176,22.4213C13.1176,21.8422,13.3237,21.3398,13.7349,20.9279C14.1481,20.5225,14.6452,20.3099,15.2252,20.3099C15.7956,20.3099,16.2894,20.5225,16.7077,20.9409L21.1689,25.4145L30.1074,16.4794C30.5233,16.061,31.022,15.8552,31.6035,15.8552L31.6023,15.8552L31.602,15.8552ZM40.03,4.21648L6.32195,4.21648C5.74074,4.21648,5.24511,4.42227,4.83168,4.83447C4.42165,5.24635,4.21432,5.74197,4.21432,6.32133L4.21432,40.0337C4.21432,40.6131,4.42135,41.1087,4.83168,41.5206C5.24511,41.9325,5.74074,42.1386,6.32195,42.1386L40.0303,42.1386C40.6125,42.1386,41.1093,41.9325,41.5197,41.5206C41.9328,41.1087,42.1386,40.6128,42.1386,40.0334L42.1386,6.32164C42.1386,5.74228,41.9328,5.24666,41.5194,4.83477C41.1093,4.42258,40.6125,4.21679,40.0303,4.21679L40.03,4.21648ZM6.3204,0L40.0288,0C41.7721,0,43.263,0.617981,44.4977,1.85394C45.7318,3.08991,46.3486,4.57708,46.3486,6.32133L46.3486,40.0272C46.3486,41.7715,45.7318,43.2652,44.4977,44.4946C43.263,45.7306,41.7721,46.3486,40.0288,46.3486L6.3204,46.3486C4.57584,46.3486,3.0862,45.7306,1.85209,44.4946C0.617363,43.2649,0,41.7715,0,40.0272L0,6.32133C0,4.57708,0.617363,3.08991,1.85209,1.85394C3.0862,0.617981,4.57584,0,6.3204,0Z" fill="#FFFFFF" fill-opacity="1"/></g></svg>