<svg xmlns="http://www.w3.org/2000/svg" xmlns:xlink="http://www.w3.org/1999/xlink" fill="none" version="1.1" width="305" height="322" viewBox="0 0 305 322"><defs><filter id="master_svg0_4342_1948" filterUnits="objectBoundingBox" color-interpolation-filters="sRGB" x="-100" y="-70" width="365" height="382"><feFlood flood-opacity="0" result="BackgroundImageFix"/><feColorMatrix in="SourceAlpha" type="matrix" values="0 0 0 0 0 0 0 0 0 0 0 0 0 0 0 0 0 0 127 0"/><feOffset dy="50" dx="20"/><feGaussianBlur stdDeviation="30"/><feColorMatrix type="matrix" values="0 0 0 0 0.003921568859368563 0 0 0 0 0.11372549086809158 0 0 0 0 0.3529411852359772 0 0 0 0.45098039507865906 0"/><feBlend mode="normal" in2="BackgroundImageFix" result="effect1_dropShadow"/><feBlend mode="normal" in="SourceGraphic" in2="effect1_dropShadow" result="shape"/></filter><linearGradient x1="0.5" y1="0" x2="0.5" y2="1" id="master_svg1_194_00637"><stop offset="0%" stop-color="#C361FF" stop-opacity="1"/><stop offset="100%" stop-color="#7164FF" stop-opacity="1"/></linearGradient></defs><g style="mix-blend-mode:passthrough"><g filter="url(#master_svg0_4342_1948)"><path d="M186.072,40L172.678,40C171.475,40.00260335,170.329,40.506957,169.51940000000002,41.39001C168.6695,42.29853,168.2014,43.49568,168.211,44.73614C168.211,45.9524,168.6452,47.151849999999996,169.51940000000002,48.08226C170.32999999999998,48.96324,171.476,49.4655,172.678,49.46667L186.072,49.46667L186.072,63.6695C186.072,64.8857,186.501,66.0796,187.381,67.0156C189.079,68.8514,191.993,68.8514,193.691,67.0156C194.541,66.1071,195.00900000000001,64.9099,195,63.6695L195,49.46667C195,44.24291,190.99599999999998,40.00000171048,186.072,40ZM190.53300000000002,110.9972C189.349,110.9915,188.211,111.4578,187.375,112.2919C186.536,113.1228,186.066,114.2533,186.072,115.4307L186.072,128.7423L172.678,128.7423C171.49200000000002,128.738,170.35399999999998,129.2064,169.51940000000002,130.0426C169.2825,130.27800000000002,169.1528,130.58069999999998,168.978,130.8666C163.9416,126.0463,158.2793,122.0893,152.0135,119.455C164.7369,111.8996,172.79000000000002,97.3717,170.32,81.0446C167.99099999999999,65.7265,156.0347,52.9193,140.7735,49.75251C138.0529,49.18318,135.28019999999998,48.89579,132.4999,48.89496C111.3637,48.88877,94.2279,65.9187,94.2341,86.9242C94.2341,100.8075,101.8083,112.8356,112.9807,119.4718C106.73179999999999,122.1061,101.0582,126.0632,96.0163,130.8834C95.8471,130.5975,95.7174,130.29489999999998,95.4749,130.0595C94.63980000000001,129.2233,93.5021,128.75490000000002,92.3166,128.7591L78.92781,128.7591L78.92781,115.4475C78.9321,114.2693,78.46078,113.1387,77.61938,112.3088C76.78426,111.4726,75.64659,111.0042,74.46111,111.0084C73.27563,111.0042,72.13796,111.4726,71.30284,112.3088C70.463511,113.1396,69.99426695,114.2702,70.0000533547,115.4475L70.0000533547,128.7591C70.0000533547,133.6522,74.00429,137.6317,78.92781,137.6317L89.9254,137.6317C82.4639,147.233,77.28663,159.261,75.65674,172.696C75.05329,177.639,79.02368,182,84.0262,182L180.96800000000002,182C185.976,182,189.93,177.628,189.338,172.696C187.713,159.244,182.53,147.216,175.06900000000002,137.6148L186.066,137.6148C190.99599999999998,137.6148,195,133.6354,195,128.7423L195,115.4251C195.00400000000002,114.2469,194.53300000000002,113.1163,193.691,112.2863C192.85500000000002,111.4522,191.71800000000002,110.9858,190.53300000000002,110.9916L190.53300000000002,110.9972ZM74.47239,68.4C75.67189,68.3973,76.81535,67.8951,77.62502,67.0156C78.47492,66.1071,78.94304,64.9099,78.93345,63.6695L78.93345,49.46667L92.3279,49.46667C93.5294,49.4655,94.6752,48.96324,95.4862,48.08226C96.334,47.17288,96.8001,45.97583,96.7889,44.73614C96.7985,43.49568,96.3304,42.29853,95.4805,41.39001C94.6705,40.506957,93.52459999999999,40.00260335,92.3223,40L78.92781,40C73.99865,40,70.0000550759,44.24291,70.0000550759,49.47227L70.0000550759,63.6695C70.0000550759,64.8857,70.428678,66.0796,71.30284,67.0156C72.11383000000001,67.8966,73.25965,68.3988,74.46111,68.4L74.47239,68.4Z" fill="url(#master_svg1_194_00637)" fill-opacity="1"/></g><g style="mix-blend-mode:passthrough"><ellipse cx="132.5" cy="87.5" rx="23.5" ry="23.5" fill="#FFFFFF" fill-opacity="1"/></g></g></svg>