<svg xmlns="http://www.w3.org/2000/svg" xmlns:xlink="http://www.w3.org/1999/xlink" fill="none" version="1.1" width="425.000244140625" height="378" viewBox="0 0 425.000244140625 378"><defs><filter id="master_svg0_229_02666" filterUnits="objectBoundingBox" color-interpolation-filters="sRGB" x="-100" y="-70" width="269.93786811828613" height="304.34505462646484"><feFlood flood-opacity="0" result="BackgroundImageFix"/><feColorMatrix in="SourceAlpha" type="matrix" values="0 0 0 0 0 0 0 0 0 0 0 0 0 0 0 0 0 0 127 0"/><feOffset dy="50" dx="20"/><feGaussianBlur stdDeviation="30"/><feColorMatrix type="matrix" values="0 0 0 0 0.003921568859368563 0 0 0 0 0.11372549086809158 0 0 0 0 0.3529411852359772 0 0 0 0.45098039507865906 0"/><feBlend mode="normal" in2="BackgroundImageFix" result="effect1_dropShadow"/><feBlend mode="normal" in="SourceGraphic" in2="effect1_dropShadow" result="shape"/></filter><linearGradient x1="0.5" y1="0" x2="0.5" y2="1" id="master_svg1_194_00637"><stop offset="0%" stop-color="#C361FF" stop-opacity="1"/><stop offset="100%" stop-color="#7164FF" stop-opacity="1"/></linearGradient><filter id="master_svg2_229_02663" filterUnits="objectBoundingBox" color-interpolation-filters="sRGB" x="-100" y="-70" width="269.93808364868164" height="304.3449401855469"><feFlood flood-opacity="0" result="BackgroundImageFix"/><feColorMatrix in="SourceAlpha" type="matrix" values="0 0 0 0 0 0 0 0 0 0 0 0 0 0 0 0 0 0 127 0"/><feOffset dy="50" dx="20"/><feGaussianBlur stdDeviation="30"/><feColorMatrix type="matrix" values="0 0 0 0 0.003921568859368563 0 0 0 0 0.11372549086809158 0 0 0 0 0.3529411852359772 0 0 0 0.45098039507865906 0"/><feBlend mode="normal" in2="BackgroundImageFix" result="effect1_dropShadow"/><feBlend mode="normal" in="SourceGraphic" in2="effect1_dropShadow" result="shape"/></filter><linearGradient x1="0.5" y1="0" x2="0.5" y2="1" id="master_svg3_194_00637"><stop offset="0%" stop-color="#C361FF" stop-opacity="1"/><stop offset="100%" stop-color="#7164FF" stop-opacity="1"/></linearGradient><filter id="master_svg4_229_02651" filterUnits="objectBoundingBox" color-interpolation-filters="sRGB" x="-100" y="-70" width="341.54090881347656" height="378"><feFlood flood-opacity="0" result="BackgroundImageFix"/><feColorMatrix in="SourceAlpha" type="matrix" values="0 0 0 0 0 0 0 0 0 0 0 0 0 0 0 0 0 0 127 0"/><feOffset dy="50" dx="20"/><feGaussianBlur stdDeviation="30"/><feColorMatrix type="matrix" values="0 0 0 0 0.003921568859368563 0 0 0 0 0.11372549086809158 0 0 0 0 0.3529411852359772 0 0 0 0.45098039507865906 0"/><feBlend mode="normal" in2="BackgroundImageFix" result="effect1_dropShadow"/><feBlend mode="normal" in="SourceGraphic" in2="effect1_dropShadow" result="shape"/></filter><linearGradient x1="0.5" y1="0" x2="0.5" y2="1" id="master_svg5_188_16067"><stop offset="0%" stop-color="#C661FF" stop-opacity="1"/><stop offset="100%" stop-color="#6A64FF" stop-opacity="1"/></linearGradient></defs><g style="mix-blend-mode:passthrough"><g style="mix-blend-mode:passthrough"><g filter="url(#master_svg0_229_02666)"><path d="M126.7971,104.04247918548583L129.7966,92.67507918548584Q130.21,91.10825918548584,129.413,89.70794918548584Q128.6159,88.30748918548584,127.0716,87.88731918548584L116.742,85.07456018548584Q115.1962,84.65396118548584,113.813,85.46540118548585Q112.4316,86.27582918548583,112.01820000000001,87.84252918548584Q111.6048,89.40925918548584,112.4012,90.81019918548584Q113.1982,92.21215918548585,114.7428,92.63244918548584L116.1906,93.02637918548584Q111.5142,95.43107918548584,107.88965,99.39387918548584Q102.923,104.82417918548583,101.02277,112.02557918548584Q99.459209,117.95107918548584,100.285805,123.97857918548584Q101.08401,129.79907918548582,103.99016,134.91117918548585Q106.89638,140.02337918548585,111.461,143.63597918548584Q116.1882,147.37727918548583,122.0236,148.96507918548582L123.1664,149.27607918548586L123.2118,149.10377918548585Q124.1122,149.06587918548584,124.95230000000001,148.57357918548584Q126.334,147.76397918548582,126.7475,146.19707918548585Q127.1609,144.63037918548585,126.3644,143.22947918548584Q125.56739999999999,141.82747918548586,124.0228,141.40727918548583Q119.6993,140.23087918548583,116.2003,137.46227918548584Q112.8194,134.78717918548585,110.6663,130.99997918548584Q108.51304999999999,127.21247918548585,107.92215,122.90107918548584Q107.31053,118.43847918548585,108.46936,114.04687918548584Q109.88374,108.68667918548584,113.5803,104.65417918548584Q116.3425,101.64077918548584,119.92439999999999,99.84617918548584L119.351,102.01927918548584Q118.9377,103.58567918548584,119.7337,104.98657918548584Q120.5303,106.38857918548584,122.0738,106.80857918548584Q123.6194,107.22917918548583,125.002,106.41897918548584Q126.3836,105.60937918548584,126.7971,104.04247918548583ZM125.6562,103.73357918548584L128.6557,92.36622918548584C128.7458,92.02463918548584,128.768,91.68130918548584,128.7306,91.35090918548585C128.7681,91.68158918548583,128.746,92.02521918548584,128.6558,92.36711918548583L125.6563,103.73447918548584C125.2736,105.18467918548583,123.811,106.04227918548584,122.3811,105.65317918548584C121.2877,105.35567918548584,120.5364,104.41507918548584,120.4164,103.33877918548583C120.5367,104.41467918548584,121.28790000000001,105.35487918548584,122.381,105.65227918548584C123.8109,106.04137918548584,125.2735,105.18377918548583,125.6562,103.73357918548584ZM113.0831,89.15789918548585C113.2017,90.23602918548585,113.9538,91.17873918548584,115.0501,91.47705918548584L117.8469,92.23804918548583L119.7396,92.75303918548585L119.7409,92.75252918548584L115.05,91.47616918548584C113.95400000000001,91.17793918548584,113.202,90.23565918548584,113.0831,89.15789918548585ZM121.6932,97.77317918548584L121.69290000000001,97.77417918548583C121.22970000000001,97.94817918548584,120.77250000000001,98.13687918548584,120.3219,98.33987918548584C114.1456,101.12227918548584,109.21426,106.59247918548584,107.32854,113.73887918548584C106.60385,116.48527918548584,106.38862,119.24827918548584,106.62403,121.92437918548583C106.38847,119.24797918548583,106.60367,116.48467918548585,107.32844,113.73797918548584C109.35179,106.07007918548584,114.8815,100.33187918548585,121.6932,97.77317918548584Z" fill-rule="evenodd" fill="url(#master_svg1_194_00637)" fill-opacity="1"/></g><g filter="url(#master_svg2_229_02663)"><path d="M258.2028054248047,128.82120520477295L255.2032534248047,140.18860520477295Q254.7898154248047,141.75540520477296,255.5868814248047,143.15570520477294Q256.3840154248047,144.55620520477294,257.9282454248047,144.97630520477296L268.2579354248047,147.78910520477297Q269.8037354248047,148.20970520477294,271.1869354248047,147.39830520477295Q272.5684354248047,146.58780520477296,272.9818354248047,145.02110520477294Q273.3952354248047,143.45440520477294,272.59873542480466,142.05340520477296Q271.8017354248047,140.65150520477295,270.2571354248047,140.23120520477295L268.8093354248047,139.83730520477295Q273.4857354248047,137.43260520477295,277.1103354248047,133.46980520477294Q282.0770354248047,128.03960520477295,283.97733542480466,120.83820520477295Q285.5408354248047,114.91270520477295,284.7142354248047,108.88520520477294Q283.9160354248047,103.06460520477295,281.0098354248047,97.95260520477295Q278.1036354248047,92.84044520477295,273.53893542480466,89.22776520477295Q268.8117354248047,85.48649520477295,262.9762654248047,83.89869220477294L261.83362542480467,83.58778285977294L261.7881854248047,83.76007320477295Q260.8877654248047,83.79791120477294,260.0475654248047,84.29023620477295Q258.6658754248047,85.09985520477295,258.2524354248047,86.66670520477295Q257.8390254248047,88.23342520477294,258.6354854248047,89.63436520477295Q259.4325154248047,91.03630520477294,260.9771354248047,91.45654520477295Q265.3006354248047,92.63294520477295,268.7997354248047,95.40150520477295Q272.1805354248047,98.07660520477295,274.3337354248047,101.86380520477294Q276.4869354248047,105.65130520477295,277.0778354248047,109.96270520477294Q277.6894354248047,114.42530520477295,276.5306354248047,118.81690520477295Q275.1162354248047,124.17700520477294,271.4197354248047,128.20960520477294Q268.6574354248047,131.22290520477296,265.0755354248047,133.01750520477296L265.6489354248047,130.84440520477295Q266.06223542480467,129.27810520477294,265.2662354248047,127.87710520477296Q264.4696154248047,126.47510520477294,262.9260954248047,126.05510520477296Q261.3804854248047,125.63460520477295,259.9979454248047,126.44470520477296Q258.6162654248047,127.25430520477295,258.2028054248047,128.82120520477295ZM259.3437154248047,129.12910520477294L256.3441754248047,140.49640520477294C255.9610104248047,141.94850520477294,256.80595542480467,143.43190520477293,258.23584542480467,143.82090520477294L268.5653354248047,146.63370520477295C269.28033542480466,146.82820520477296,270.0036354248047,146.71060520477295,270.5959354248047,146.36310520477295C270.0036354248047,146.71060520477295,269.2802354248047,146.82830520477296,268.5652354248047,146.63370520477295L258.2357454248047,143.82100520477294C256.8058554248047,143.43190520477293,255.9609094248047,141.94860520477295,256.3440654248047,140.49650520477294L259.3436154248047,129.12920520477294C259.4365554248047,128.77700520477293,259.59319542480466,128.45970520477294,259.7975954248047,128.18680520477295C259.5932554248047,128.45970520477294,259.4366454248047,128.77690520477296,259.3437154248047,129.12910520477294ZM272.28483542480467,129.02310520477295C274.7716354248047,126.31020520477296,276.6599354248047,122.95870520477294,277.6715354248047,119.12480520477294C280.9848354248047,106.56850520477295,273.6491354248047,93.66540520477295,261.2845254248047,90.30105520477295C259.8545954248047,89.91201520477296,259.0101754248047,88.42671520477295,259.3933454248047,86.97457520477295C259.5280654248047,86.46405520477295,259.79663542480466,86.02696520477295,260.1505254248047,85.69186520477295C259.7965854248047,86.02697520477295,259.5279754248047,86.46409520477295,259.39324542480466,86.97466520477295C259.0100654248047,88.42681520477295,259.85449542480467,89.91211520477295,261.2844254248047,90.30115520477295C273.6489354248047,93.66550520477296,280.9847354248047,106.56860520477295,277.6714354248047,119.12480520477294C276.65983542480467,122.95880520477294,274.7715354248047,126.31030520477296,272.28483542480467,129.02310520477295ZM262.6684954248047,85.05589520477295L262.6685654248047,85.05591520477294L262.66904542480466,85.05410520477295L262.66897542480467,85.05408520477295L262.6684954248047,85.05589520477295ZM271.1737354248047,137.03910520477297C269.3286354248047,138.28930520477294,267.3429354248047,139.32090520477294,265.25903542480467,140.11020520477294L265.2591354248047,140.11020520477294C265.86593542480466,139.88030520477295,266.46443542480466,139.62990520477294,267.0535354248047,139.35960520477295C268.48753542480466,138.70150520477296,269.86593542480466,137.92520520477296,271.1737354248047,137.03910520477297Z" fill-rule="evenodd" fill="url(#master_svg3_194_00637)" fill-opacity="1"/></g><g filter="url(#master_svg4_229_02651)"><path d="M243.2561641845703,121.4671C243.2561641845703,93.1602,220.4093641845703,70,192.4856641845703,70C164.5618641845703,70,141.7151641845703,93.1602,141.7151641845703,121.4671C141.7151641845703,149.40640000000002,179.43036418457032,194.624,189.9470641845703,206.755C191.39766418457032,208.226,193.93626418457032,208.594,195.38676418457032,206.755C205.5408641845703,194.624,243.2561641845703,150.14159999999998,243.2561641845703,121.4671ZM167.1003641845703,121.4671C167.1003641845703,107.1298,178.3424641845703,95.7336,192.4856641845703,95.7336C206.62886418457032,95.7336,217.8708641845703,107.1298,217.8708641845703,121.4671C217.8708641845703,135.8044,206.62886418457032,147.20069999999998,192.4856641845703,147.20069999999998C178.3424641845703,147.20069999999998,167.1003641845703,135.8044,167.1003641845703,121.4671Z" fill="url(#master_svg5_188_16067)" fill-opacity="1"/></g></g><g style="mix-blend-mode:passthrough"><ellipse cx="192.97759246826172" cy="120.79166793823242" rx="26.565025329589844" ry="26.83333396911621" fill="#FFFFFF" fill-opacity="1"/></g></g></svg>