<svg xmlns="http://www.w3.org/2000/svg" xmlns:xlink="http://www.w3.org/1999/xlink" fill="none" version="1.1" width="387" height="387" viewBox="0 0 387 387"><defs><filter id="master_svg0_219_10903" filterUnits="objectBoundingBox" color-interpolation-filters="sRGB" x="-100" y="-70" width="387" height="387"><feFlood flood-opacity="0" result="BackgroundImageFix"/><feColorMatrix in="SourceAlpha" type="matrix" values="0 0 0 0 0 0 0 0 0 0 0 0 0 0 0 0 0 0 127 0"/><feOffset dy="50" dx="20"/><feGaussianBlur stdDeviation="30"/><feColorMatrix type="matrix" values="0 0 0 0 0.003921568859368563 0 0 0 0 0.11372549086809158 0 0 0 0 0.3529411852359772 0 0 0 0.45098039507865906 0"/><feBlend mode="normal" in2="BackgroundImageFix" result="effect1_dropShadow"/><feBlend mode="normal" in="SourceGraphic" in2="effect1_dropShadow" result="shape"/></filter><linearGradient x1="0.5" y1="0" x2="0.5" y2="1" id="master_svg1_188_12969"><stop offset="0%" stop-color="#CA61FF" stop-opacity="1"/><stop offset="100%" stop-color="#6A64FF" stop-opacity="1"/></linearGradient></defs><g style="mix-blend-mode:passthrough"><g filter="url(#master_svg0_219_10903)"><path d="M202.9,99.4C178.64499999999998,99.4,158.8,119.245,158.8,143.5C158.8,168.49,182.5038,197.155,194.2637,209.65L124.8062,209.65C115.2513,209.65,107.35,202.3,107.35,193.112C107.35,184.10899999999998,115.435,176.575,124.8062,176.575L133.62630000000001,176.575C143.73250000000002,176.575,152.00119999999998,168.3062,152.00119999999998,158.2C152.00119999999998,148.0937,143.73250000000002,139.825,133.62630000000001,139.825L114.7,139.825C110.6575,139.825,107.35,136.51749999999998,107.35,132.475C107.35,128.4325,110.6575,125.125,114.7,125.125L122.05,125.125C122.4175,125.125,122.785,125.125,123.1525,124.94120000000001L123.3362,124.94120000000001C123.7038,124.7575,124.0712,124.5737,124.255,124.39C125.1737,123.655,144.1,108.4037,144.1,92.05C144.1,79.9225,134.1775,70,122.05,70C109.9225,70,100,79.9225,100,92.05C100,102.1563,107.16625,111.7113,112.8625,117.9587C105.5125,118.8775,100,125.125,100,132.475C100,140.56,106.615,147.175,114.7,147.175L133.62630000000001,147.175C139.69,147.175,144.65120000000002,152.1363,144.65120000000002,158.2C144.65120000000002,164.2637,139.69,169.225,133.62630000000001,169.225L124.8062,169.225C111.2087,169.225,100,179.882,100,193.112C100,206.342,111.2087,217,124.8062,217L204.002,217C204.186,217,204.186,217,204.37,216.816C204.554,216.816,204.554,216.632,204.737,216.632C204.921,216.632,204.921,216.449,205.10500000000002,216.449C205.289,216.449,205.289,216.265,205.47199999999998,216.265L205.656,216.081C207.126,214.427,247,176.024,247,143.5C247,119.245,227.155,99.4,202.9,99.4Z" fill="url(#master_svg1_188_12969)" fill-opacity="1"/></g><g style="mix-blend-mode:passthrough"><ellipse cx="203.56816864013672" cy="137.9318084716797" rx="18.93181610107422" ry="18.93181610107422" fill="#FFFFFF" fill-opacity="1"/></g><g style="mix-blend-mode:passthrough"><ellipse cx="122.27272510528564" cy="90.04545307159424" rx="8.909090042114258" ry="8.909090042114258" fill="#FFFFFF" fill-opacity="1"/></g></g></svg>