<svg xmlns="http://www.w3.org/2000/svg" xmlns:xlink="http://www.w3.org/1999/xlink" fill="none" version="1.1" width="368" height="378.6669921875" viewBox="0 0 368 378.6669921875"><defs><filter id="master_svg0_219_10995" filterUnits="objectBoundingBox" color-interpolation-filters="sRGB" x="-100" y="-70" width="368" height="378.66668701171875"><feFlood flood-opacity="0" result="BackgroundImageFix"/><feColorMatrix in="SourceAlpha" type="matrix" values="0 0 0 0 0 0 0 0 0 0 0 0 0 0 0 0 0 0 127 0"/><feOffset dy="50" dx="20"/><feGaussianBlur stdDeviation="30"/><feColorMatrix type="matrix" values="0 0 0 0 0.003921568859368563 0 0 0 0 0.11372549086809158 0 0 0 0 0.3529411852359772 0 0 0 0.45098039507865906 0"/><feBlend mode="normal" in2="BackgroundImageFix" result="effect1_dropShadow"/><feBlend mode="normal" in="SourceGraphic" in2="effect1_dropShadow" result="shape"/></filter><linearGradient x1="0.5" y1="-0.2466588020324707" x2="0.5609154105186462" y2="0.7214112877845764" id="master_svg1_229_03664"><stop offset="0.08604676695540547%" stop-color="#EE60FF" stop-opacity="1"/><stop offset="100%" stop-color="#6964FF" stop-opacity="1"/></linearGradient></defs><g style="mix-blend-mode:passthrough"><g style="opacity:0;mix-blend-mode:passthrough"><rect x="84" y="59" width="160.00001525878906" height="160.00001525878906" rx="0" fill="#000000" fill-opacity="1"/></g><g style="mix-blend-mode:passthrough" filter="url(#master_svg0_219_10995)"><path d="M146.2768,70L145.8595,70.0128646C142.1005,70.252216,139.1654,73.62449,139.16559999999998,77.70372L139.16559999999998,112.83L107.11113,112.83C105.22512,112.83,103.41635,113.6416,102.08276,115.0864C100.749158,116.5312,99.9999668476,118.4907,100,120.5338L100,158.5335L100.011875,158.9855C100.232815,163.0578,103.34568,166.2375,107.11113,166.2373L139.16559999999998,166.2321L139.16559999999998,200.963C139.16559999999998,205.218,142.3494,208.667,146.2768,208.667L181.3511,208.667L181.7706,208.654C185.52870000000001,208.413,188.4625,205.041,188.4622,200.963L188.4598,166.2321L220.887,166.2373C222.773,166.2379,224.582,165.4266,225.916,163.98180000000002C227.25,162.537,228,160.5771,228,158.5335L228,120.5363L227.988,120.0818C227.76600000000002,116.0106,224.654,112.8323,220.889,112.8326L188.4599,112.83L188.4622,77.70372C188.4622,75.66054,187.713,73.70105,186.3794,72.25632C185.04579999999999,70.811588,183.237,69.9999640849,181.351,70L146.2769,70L146.2768,70Z" fill="url(#master_svg1_229_03664)" fill-opacity="1"/></g><g style="mix-blend-mode:passthrough"><g style="mix-blend-mode:passthrough"><path d="M164.97662749023436,84.37548L171.50932749023437,92.57981C172.23962749023437,93.497,171.58642749023437,94.8519,170.4140274902344,94.8519L157.34876749023437,94.8519C156.17634749023438,94.8519,155.52324749023438,93.497,156.25354749023438,92.57981L162.78618749023437,84.37548C163.34667749023438,83.671566,164.41613749023438,83.671566,164.97662749023436,84.37548" fill="#FFFFFF" fill-opacity="1"/></g><g style="mix-blend-mode:passthrough"><path d="M162.78618749023437,194.216634375L156.25354749023438,186.012294375C155.52324749023438,185.095114375,156.17634749023438,183.740234375,157.34876749023437,183.740234375L170.4140274902344,183.740234375C171.58642749023437,183.740234375,172.23962749023437,185.095114375,171.50932749023437,186.012294375L164.97662749023436,194.216634375C164.41613749023438,194.920534375,163.34667749023438,194.920534375,162.78618749023437,194.216634375" fill="#FFFFFF" fill-opacity="1"/></g></g><g style="mix-blend-mode:passthrough"><path d="M216.66892492675782,140.4059L208.74950492675782,147.6101C207.8502849267578,148.4281,206.4074249267578,147.7901,206.4074249267578,146.5745L206.4074249267578,132.16617C206.4074249267578,130.95055,207.8502849267578,130.31255,208.74950492675782,131.13056L216.66892492675782,138.3347C217.27942492675783,138.89012,217.27942492675783,139.8505,216.66892492675782,140.4059" fill="#FFFFFF" fill-opacity="1"/></g><g style="mix-blend-mode:passthrough"><path d="M111.09397253723145,138.3347L119.01347253723145,131.13052C119.91269253723145,130.31253,121.35552253723145,130.95053,121.35552253723145,132.16614L121.35552253723145,146.5745C121.35552253723145,147.7901,119.91269253723145,148.4281,119.01347253723145,147.6101L111.09397253723145,140.4059C110.48339853723145,139.8505,110.48339853723145,138.89012,111.09397253723145,138.3347" fill="#FFFFFF" fill-opacity="1"/></g></g></svg>