<svg xmlns="http://www.w3.org/2000/svg" xmlns:xlink="http://www.w3.org/1999/xlink" fill="none" version="1.1" width="376" height="376" viewBox="0 0 376 376"><defs><filter id="master_svg0_229_04225" filterUnits="objectBoundingBox" color-interpolation-filters="sRGB" x="-100" y="-70" width="376" height="376"><feFlood flood-opacity="0" result="BackgroundImageFix"/><feColorMatrix in="SourceAlpha" type="matrix" values="0 0 0 0 0 0 0 0 0 0 0 0 0 0 0 0 0 0 127 0"/><feOffset dy="50" dx="20"/><feGaussianBlur stdDeviation="30"/><feColorMatrix type="matrix" values="0 0 0 0 0.003921568859368563 0 0 0 0 0.11372549086809158 0 0 0 0 0.3529411852359772 0 0 0 0.45098039507865906 0"/><feBlend mode="normal" in2="BackgroundImageFix" result="effect1_dropShadow"/><feBlend mode="normal" in="SourceGraphic" in2="effect1_dropShadow" result="shape"/></filter><linearGradient x1="0.5" y1="0" x2="0.5" y2="1" id="master_svg1_194_00637"><stop offset="0%" stop-color="#C361FF" stop-opacity="1"/><stop offset="100%" stop-color="#7164FF" stop-opacity="1"/></linearGradient></defs><g style="mix-blend-mode:passthrough" filter="url(#master_svg0_229_04225)"><g><path d="M110.4039,167.131L110.4039,195.596L138.869,195.596L138.869,206L109.07222,206C104.07834,206,100.00000158751,201.922,100.00000158751,196.928L100.00000158751,167.131L110.4039,167.131ZM236,167.131L236,196.928C236,201.922,231.922,206,226.928,206L197.131,206L197.131,195.596L223.765,195.596C224.764,195.596,225.513,194.84699999999998,225.513,193.848L225.513,167.131L236,167.131ZM168,103.9584C187.64260000000002,103.9584,205.454,115.2778,221.435,138C205.454,160.6389,187.64260000000002,172.042,168,172.042C148.35739999999998,172.042,130.5459,160.7222,114.5655,138C130.5459,115.3611,148.35739999999998,103.9584,168,103.9584ZM168,124.9327C160.5924,124.9327,154.59980000000002,131.0918,154.9327,138.5826C155.2656,145.24110000000002,160.6757,150.7344,167.4174,151.0673C174.9082,151.40030000000002,181.0673,145.49079999999998,181.0673,138C181.0673,130.75889999999998,175.24110000000002,124.9327,168,124.9327ZM138.869,70.00000317502L138.869,80.4039L110.4039,80.4039L110.4039,108.869L100,108.869L100,79.07222C100,74.07834,104.07834,70.00000158751,109.07222,70.00000158751L138.869,70.00000317502ZM236,79.07222L236,108.869L225.513,108.869L225.513,80.4039L197.131,80.4039L197.131,70L226.928,70C231.922,70,236,74.07834,236,79.07222Z" fill="url(#master_svg1_194_00637)" fill-opacity="1"/></g><g style="mix-blend-mode:passthrough"><ellipse cx="168.00001430511475" cy="138.45333576202393" rx="14.506667137145996" ry="14.05333423614502" fill="#FFFFFF" fill-opacity="1"/></g></g></svg>