<svg xmlns="http://www.w3.org/2000/svg" xmlns:xlink="http://www.w3.org/1999/xlink" fill="none" version="1.1" width="376" height="376" viewBox="0 0 376 376"><defs><filter id="master_svg0_229_04699" filterUnits="objectBoundingBox" color-interpolation-filters="sRGB" x="-100" y="-70" width="376" height="376"><feFlood flood-opacity="0" result="BackgroundImageFix"/><feColorMatrix in="SourceAlpha" type="matrix" values="0 0 0 0 0 0 0 0 0 0 0 0 0 0 0 0 0 0 127 0"/><feOffset dy="50" dx="20"/><feGaussianBlur stdDeviation="30"/><feColorMatrix type="matrix" values="0 0 0 0 0.003921568859368563 0 0 0 0 0.11372549086809158 0 0 0 0 0.3529411852359772 0 0 0 0.45098039507865906 0"/><feBlend mode="normal" in2="BackgroundImageFix" result="effect1_dropShadow"/><feBlend mode="normal" in="SourceGraphic" in2="effect1_dropShadow" result="shape"/></filter><linearGradient x1="0.5" y1="0" x2="0.5" y2="1" id="master_svg1_194_00637"><stop offset="0%" stop-color="#C361FF" stop-opacity="1"/><stop offset="100%" stop-color="#7164FF" stop-opacity="1"/></linearGradient></defs><g style="mix-blend-mode:passthrough" filter="url(#master_svg0_229_04699)"><g><path d="M211.714,196.286C214.397,196.286,216.571,198.46,216.571,201.143C216.571,203.825,214.397,206,211.714,206L124.28569999999999,206C121.6032,206,119.4286,203.825,119.4286,201.143C119.4286,198.46,121.6032,196.286,124.28569999999999,196.286L211.714,196.286ZM221.429,70C229.476,70,236,76.52375,236,84.5714L236,172C236,180.048,229.476,186.571,221.429,186.571L114.5714,186.571C106.52375,186.571,100,180.048,100,172L100,84.5714C100,76.52375,106.52375,70,114.5714,70L221.429,70ZM213.166,115.65C211.591,113.5569,208.637,113.0906,206.494,114.5971L206.429,114.64320000000001L183.6617,131.2011C182.8823,131.7679,181.8414,131.8203,181.0091,131.3345L180.9605,131.3053L156.4143,116.20009999999999C152.9981,114.0978,148.6455,114.3134,145.4554,116.7313L145.3592,116.80539999999999L126.1609,131.7375L126.0979,131.78730000000002C124.0567,133.4287,123.6857,136.397,125.26050000000001,138.4903L125.3089,138.5534L125.3587,138.6164C127.0001,140.6576,129.9684,141.02859999999998,132.0617,139.4538L132.1248,139.4054L149.99349999999998,125.50739999999999C150.7769,124.8981,151.8522,124.82679999999999,152.70929999999998,125.32730000000001L152.7574,125.3561L177.2548,140.4315C180.5745,142.4743,184.7901,142.3333,187.9638,140.0833L188.05970000000002,140.0144L212.142,122.4996L212.207,122.45179999999999C214.3,120.8771,214.76600000000002,117.9222,213.26,115.7793L213.214,115.7147L213.166,115.65Z" fill="url(#master_svg1_194_00637)" fill-opacity="1"/></g><g style="mix-blend-mode:passthrough"><path d="M185.5691579711914,142.40503157958983L212.3806579711914,122.97649157958985C213.7926579711914,121.95330157958985,214.6285579711914,120.31522157958985,214.6285579711914,118.57145157958985C214.6285579711914,115.56703157958984,212.19305797119142,113.13145603728984,209.18855797119141,113.13145603728984C208.0420579711914,113.13145603728984,206.9248579711914,113.49368257958984,205.9965579711914,114.16642157958984L182.1174579711914,131.47013157958983L153.3463579711914,113.92680457958984C151.3928579711914,112.73559757958985,148.90265797119142,112.89415957958984,147.1159579711914,114.32353157958984L125.7445179711914,131.42063157958984C124.45406597119141,132.45303157958983,123.7028579711914,134.01603157958985,123.7028579711914,135.66863157958983C123.7028579711914,138.67303157958983,126.1384279711914,141.10863157958985,129.1428579711914,141.10863157958985C130.37812797119142,141.10863157958985,131.5766179711914,140.68823157958985,132.5411979711914,139.91653157958984L150.9363579711914,125.20033157958984L179.5450579711914,142.64463157958986C181.4177579711914,143.78663157958985,183.79305797119142,143.69213157958984,185.5691579711914,142.40503157958983Z" fill-rule="evenodd" fill="#FFFFFF" fill-opacity="1"/></g></g></svg>