<svg xmlns="http://www.w3.org/2000/svg" xmlns:xlink="http://www.w3.org/1999/xlink" fill="none" version="1.1" width="376" height="382" viewBox="0 0 376 382"><defs><filter id="master_svg0_4222_3237" filterUnits="objectBoundingBox" color-interpolation-filters="sRGB" x="-100" y="-70" width="376" height="382"><feFlood flood-opacity="0" result="BackgroundImageFix"/><feColorMatrix in="SourceAlpha" type="matrix" values="0 0 0 0 0 0 0 0 0 0 0 0 0 0 0 0 0 0 127 0"/><feOffset dy="50" dx="20"/><feGaussianBlur stdDeviation="30"/><feColorMatrix type="matrix" values="0 0 0 0 0.003921568859368563 0 0 0 0 0.11372549086809158 0 0 0 0 0.3529411852359772 0 0 0 0.45098039507865906 0"/><feBlend mode="normal" in2="BackgroundImageFix" result="effect1_dropShadow"/><feBlend mode="normal" in="SourceGraphic" in2="effect1_dropShadow" result="shape"/></filter><linearGradient x1="0.5" y1="0" x2="0.5" y2="1" id="master_svg1_194_00637"><stop offset="0%" stop-color="#C361FF" stop-opacity="1"/><stop offset="100%" stop-color="#7164FF" stop-opacity="1"/></linearGradient></defs><g filter="url(#master_svg0_4222_3237)"><path d="M165.4349,70C159.7569,70,155.1051,74.63661,154.9259,80.471L153.4515,129.0658L145.8201,91.479C144.661,85.76820000000001,139.29840000000002,82.033,133.7069,83.0455L133.0702,83.1597C127.4819,84.1753,123.6832,89.5682,124.493,95.34700000000001L130.953,141.3612L120.9663,116.00489999999999C118.8429,110.612,112.9486,107.9171,107.62916,109.9051L106.91826,110.17060000000001C101.60812,112.1586,98.77687,118.1071,100.507764,123.6389L120.0823,186.168C123.065,193.562,124.3725,198.939,135.2462,206.397C146.1199,213.855,178.2713,215.359,193.3363,201.566C198.8226,196.54000000000002,206.643,187.079,210.852,180.72L233.787,149.131C237.316,144.27519999999998,236.547,137.4284,232.031,133.52960000000002C227.559,129.6402,220.78,130.0914,216.864,134.539L198.66500000000002,154.88819999999998L207.017,95.34700000000001C207.826,89.5682,204.031,84.1722,198.4393,83.1597L197.80259999999998,83.0455C192.21120000000002,82.0299,186.8485,85.7651,185.6894,91.479L178.0642,129.0658L176.5837,80.471C176.4075,74.63661,171.7557,70,166.0778,70L165.4318,70L165.4349,70Z" fill="url(#master_svg1_194_00637)" fill-opacity="1"/></g></svg>